<?xml version="1.0" encoding="utf-8"?>
<!-- Generator: Adobe Illustrator 25.0.0, SVG Export Plug-In . SVG Version: 6.00 Build 0)  -->
<svg version="1.1" id="Ebene_1" xmlns="http://www.w3.org/2000/svg" xmlns:xlink="http://www.w3.org/1999/xlink" x="0px" y="0px"
	 viewBox="0 0 4500 5400" style="enable-background:new 0 0 4500 5400;" xml:space="preserve">
<style type="text/css">
	.st0{fill:#D8D9DD;}
	.st1{fill:#05314C;}
	.st2{fill:#B3765B;}
	.st3{fill:#432C22;}
	.st4{fill:none;stroke:#432C22;stroke-width:16;stroke-miterlimit:10;}
	.st5{fill:#B27761;}
	.st6{fill:#058498;}
	.st7{fill:#0E4862;}
	.st8{fill:#ffffff;}
	.st9{fill:#D9DAE0;}
	.st10{fill:#68A2AA;}
	.st11{fill:none;stroke:#432C22;stroke-width:20;stroke-miterlimit:10;}
</style>
<g>
	<rect x="1442.14" y="3245.15" class="st0" width="382.69" height="690.16"/>
	<path class="st1" d="M606.43,2652.3c0,0-545.83-85.86-251.45-516.39c0,0,78.5-110.39,186.44-131.24
		c107.94-20.85,192.57-114.07,198.71-283.34s174.17-491.86,442.8-462.42c268.62,29.44,304.19,90.77,304.19,90.77
		s153.32,122.66,111.62,209.75s-220.79,309.1-220.79,309.1l-251.45,429.3l-299.29,290.7L606.43,2652.3z"/>
	<path class="st0" d="M341.48,3008.01l245.32,12.27l-66.24,919.94l1091.66-4.91l120.21-905.22l159.46-4.91
		c0,0,63.78-321.37-93.22-414.59s-485.73-169.27-485.73-169.27s-471.01-83.41-868.42,181.53
		C444.52,2622.87,329.22,2723.45,341.48,3008.01z"/>
	<rect x="361.11" y="3008.01" class="st2" width="230.6" height="927.3"/>
	<rect x="1648.99" y="3008.01" class="st2" width="230.6" height="927.3"/>
	<path class="st2" d="M1115.05,1951.51l-192.98,493.9c0,0-9.81,325.45,338.54,181.53c0,0,94.86-45.79,93.22-189.71
		s16.35-233.87,16.35-233.87s9.81-44.16,140.65-22.9c130.84,21.26,125.93-27.8,125.93-27.8l3.27-65.42c0,0,10.22-27.39,27.39-27.39
		c17.17,0-1.84-25.76-1.84-25.76l-13.49-28.21l47.84-16.56c0,0-9.2-49.06,3.07-66.85c0,0,8.59-34.34,33.73-36.18
		s52.13-28.82-12.88-72.98c-65.01-44.16-132.47-120.21-118.98-190.12l-2.15-65.93c0,0-289.78,4.19-378.09,263.41
		c0,0-85.86-136.56-136.56-23.71c0,0-19.63,51.52,26.98,121.84C1115.05,1918.81,1125.68,1922.08,1115.05,1951.51z"/>
	<path class="st3" d="M1499.99,1741.56c2.15,0,45.08,9.2,66.24-20.55c0,0,19.32,41.09-19.32,58.88
		C1508.27,1797.68,1499.99,1741.56,1499.99,1741.56z"/>
	<path class="st3" d="M1623.85,2005.56c0,0,42.87-26.98,81-20.43c0,0,24.17,26.95-43.61,28.45c0,0,26.75,34.8,16.52,44.56
		S1653.35,2064.88,1623.85,2005.56z"/>
	<path class="st4" d="M1429.87,1676.35c0,0,47.84-71.96,132.06-53.97"/>
	<path class="st5" d="M3244.95,1740.55l234.28,356.94l307.7-237.43l-306.47-358.7l-15.95-147.19l-312.78-13.49l-347.12,22.08
		c0,0-25.76,124.7,88.72,296.42S3244.95,1740.55,3244.95,1740.55z"/>
	<path class="st6" d="M3007,3006.79c-4.91-0.82-274.75-26.17-307.46-87.5c0,0-68.69-72.78-93.22-169.27
		c-24.53-96.49-178.26-49.88-178.26-49.88l2.04,47.84c0,0,44.97,15.13,65.83,6.95c0,0-36.8,134.52,18.81,181.13
		c55.6,46.61,83.41,101.4,167.63,103.03l305.01,206.48L3007,3006.79z"/>
	<path class="st7" d="M2505.94,2876.98c0,0-149.64,22.08-177.85-22.69l-9.81-30.05l-70.82-2.45c0,0-69.42-24.33,15.62-31.07h74.62
		l1.17-18.42l-91.41-1.11c0,0-70.51-18.09,0-27.6l129.08-4.6l9.52-18.09h-126.65c0,0-60.41-12.57,0.61-23.31l150.56-8.7l3.68,44.27
		h60.41l41.09,16.87L2505.94,2876.98z"/>
	<path class="st8" d="M3411.77,2087.67c0,0,210.97-252.68,311.55-296.83c0,0,360.62,336.08,468.56,983.72
		s159.46,1143.18,159.46,1143.18H2688.08C2688.08,3917.74,2872.07,2919.3,3411.77,2087.67z"/>
	<path class="st3" d="M2906.42,1621.57c0,0,28.82,5.52,34.96-23.31C2941.37,1598.27,2962.84,1677.99,2906.42,1621.57z"/>
	<path class="st3" d="M2973.49,1585.01l294.2-154.79c0,0,82.52-24.07-283.5,174.41"/>
	<path class="st9" d="M2887.88,1650.88c0,0-30.53,138.73,9.95,187.79s256.36,208.52,360.62,42.93l101.19-133.7l-129.4-223.85
		C3230.24,1524.06,2944.79,1792.43,2887.88,1650.88z"/>
	<path class="st9" d="M3335.11,1731.96c0,0,94.45-123.96,109.17-214.99l20.24,21.81c0,0-96.9,206.07-118.98,208.52
		C3323.46,1749.75,3335.11,1731.96,3335.11,1731.96z"/>
	<path class="st9" d="M3230.24,1546.75c0,0,63.78-119.59,76.66-130.02l-20.85-7.97l-66.85,134.31L3230.24,1546.75z"/>
	<g>
		
			<rect x="2243.57" y="2843.87" transform="matrix(0.7987 0.6017 -0.6017 0.7987 2227.292 -758.5866)" class="st6" width="7.77" height="211.62"/>
		<g>
			
				<rect x="2504.32" y="2510.68" transform="matrix(0.7987 0.6017 -0.6017 0.7987 2069.4397 -988.1779)" class="st6" width="14.72" height="176.56"/>
			
				<rect x="2525.09" y="2520.92" transform="matrix(0.7987 0.6017 -0.6017 0.7987 2038.5277 -1033.1385)" class="st6" width="76.66" height="18.71"/>
			
				<rect x="2352.32" y="2621.96" transform="matrix(0.7987 0.6017 -0.6017 0.7987 2144.4934 -879.0149)" class="st9" width="67.46" height="287.5"/>
		</g>
	</g>
	<path class="st6" d="M2499.19,2810.95c0,0-74.82-41.29-94.04-66.24c-19.22-24.94-63.56-1.64-19.1,42.52
		c44.45,44.16,53.04,93.22,121.32,112.44S2499.19,2810.95,2499.19,2810.95z"/>
	<path class="st6" d="M2679.5,3451.64v297.45l-342.83-153.94c0,0-124.91,25.76-168.66-33.12c-43.75-58.88-116.12-72.37-173.36-32.71
		l-53.97,40.48c0,0-60.51,40.07-23.71-27.8c0,0,50.29-55.61,91.18-65.42c0,0-89.54,34.75-118.98,62.96c0,0-60.92,37.62-20.85-30.66
		c0,0,48.25-44.16,107.94-65.83l-110.39,39.66c0,0-78.09,24.94-18.81-35.16c0,0,87.09-62.96,176.22-72.78
		c89.13-9.81,191.96,47.43,274.14,82.39L2679.5,3451.64z"/>
	<polyline class="st8" points="2679.5,3451.64 3140.29,3425.47 3179.54,3868.67 2679.5,3749.08 	"/>
	<path class="st10" d="M2876.16,3431.19c0,0,215.06-27.8,260.85-21.26c0,0,85.04-602.66,196.25-829.99
		c0,0-152.1,556.05-176.63,870.06l-19.93-22.28C3136.71,3427.72,3034.19,3419.95,2876.16,3431.19z"/>
	<path class="st10" d="M2806.65,3762.37c0,0,804.64,461.45,928.93-812.69C3735.59,2949.68,3725.78,4223.57,2806.65,3762.37z"/>
	
		<ellipse transform="matrix(0.8424 -0.5388 0.5388 0.8424 -407.9176 1832.4244)" class="st11" cx="2928.8" cy="1613.6" rx="53.05" ry="93.53"/>
	<path class="st6" d="M2821.37,1402.42l339.56,8.18c0,0,101.19,40.48,123.89,36.8c0,0,88.93-111.62,131.86-13.49
		c0,0,17.79,30.05,17.17,101.81c-0.61,71.76,201.16,77.89,201.16,77.89s278.03-37.82,122.66-309.3
		c-155.37-271.48-693.43-458.74-862.7-314.01C2725.7,1135.03,2663.96,1347.63,2821.37,1402.42z"/>
	<path class="st6" d="M1387.4,3282.62c-7.22-1.39-14.28,1.29-18.82,6.43l-51.7-9.97c4.43-25.32,4.04-50.4-0.45-74.31l41.2-9.7
		c2.53,2.9,6.47,4.41,10.5,3.55c5.92-1.26,9.7-7.08,8.44-13c-1.26-5.92-7.08-9.7-13-8.44c-4.2,0.89-7.27,4.09-8.29,7.98l-40.98,9.65
		c-4.15-17.34-10.47-33.98-18.77-49.53l40.98-27.72c1.5,0.71,3.09,1.27,4.8,1.59c10.88,2.1,21.39-5.02,23.49-15.89
		c2.1-10.88-5.02-21.4-15.89-23.49c-10.88-2.1-21.4,5.02-23.49,15.89c-0.33,1.7-0.41,3.39-0.3,5.04l-40.03,27.08
		c-12.88-19.33-28.98-36.5-47.69-50.68l20.07-30.92c1.07,0.1,2.16,0.09,3.27-0.14c5.92-1.26,9.7-7.08,8.44-13
		c-1.26-5.92-7.08-9.7-13-8.44s-9.7,7.08-8.44,13c0.24,1.1,0.67,2.1,1.2,3.04l-19.8,30.49c-17.51-11.96-37.08-21.39-58.29-27.64
		l7.01-36.36c6.46-2.31,11.58-7.85,12.97-15.08c2.1-10.88-5.02-21.4-15.89-23.49s-21.4,5.02-23.49,15.89
		c-1.39,7.23,1.29,14.28,6.43,18.82l-6.83,35.39c-28.89-5.55-57.51-4.82-84.5,1.21l-7.6-25.65c2.6-2.54,3.9-6.29,3.09-10.11
		c-1.26-5.92-7.08-9.7-13-8.44c-5.92,1.26-9.7,7.08-8.44,13c0.94,4.42,4.43,7.64,8.6,8.47l7.46,25.18
		c-17.94,4.94-35.06,12.25-50.92,21.63l-19.36-28.61c0.71-1.5,1.27-3.09,1.59-4.8c2.1-10.88-5.02-21.4-15.89-23.49
		c-10.88-2.1-21.39,5.02-23.49,15.89s5.02,21.4,15.89,23.49c1.7,0.33,3.39,0.41,5.04,0.3l19.22,28.41
		c-17.85,13.05-33.62,28.95-46.62,47.17l-18.87-12.25c0.1-1.07,0.09-2.16-0.14-3.26c-1.26-5.92-7.08-9.7-13-8.44
		c-5.92,1.26-9.7,7.08-8.44,13c1.26,5.92,7.08,9.7,13,8.44c1.11-0.24,2.1-0.67,3.04-1.2l18.72,12.15
		c-13.27,20.67-23.09,44.02-28.45,69.42l-32-6.17c-2.31-6.46-7.85-11.58-15.08-12.97c-10.88-2.1-21.39,5.02-23.49,15.89
		c-2.1,10.88,5.02,21.39,15.89,23.49c7.23,1.39,14.28-1.29,18.82-6.43l32.62,6.29c-2.68,23.95-1.1,47.54,4.1,69.97l-21.58,5.08
		c-2.53-2.9-6.48-4.41-10.5-3.55c-5.92,1.26-9.7,7.08-8.44,13c1.26,5.92,7.08,9.7,13,8.44c4.2-0.89,7.27-4.09,8.28-7.98l21.78-5.13
		c6.22,21.88,15.93,42.52,28.69,61.09l-35.89,24.28c-1.5-0.71-3.09-1.27-4.8-1.59c-10.88-2.1-21.39,5.02-23.49,15.89
		c-2.1,10.88,5.02,21.39,15.89,23.49c10.88,2.1,21.39-5.02,23.49-15.89c0.33-1.7,0.41-3.39,0.3-5.05l36.84-24.92
		c14.11,16.77,30.91,31.35,49.88,43.07l-15.5,23.87c-1.07-0.1-2.16-0.09-3.26,0.14c-5.92,1.26-9.7,7.08-8.44,13
		c1.26,5.92,7.08,9.7,13,8.44c5.92-1.26,9.7-7.08,8.44-13c-0.23-1.1-0.67-2.1-1.2-3.04l15.75-24.26
		c18.59,10.26,39.06,17.86,61.04,22.11l-6.83,35.39c-6.46,2.31-11.58,7.85-12.97,15.08c-2.1,10.88,5.02,21.4,15.89,23.49
		c10.88,2.1,21.39-5.02,23.49-15.89c1.39-7.23-1.29-14.28-6.43-18.82l7.01-36.36c28.62,2.72,56.66-0.6,82.76-8.96l10.27,34.65
		c-2.6,2.54-3.9,6.29-3.09,10.11c1.26,5.92,7.08,9.7,13,8.44c5.92-1.26,9.7-7.08,8.44-13c-0.94-4.42-4.43-7.64-8.6-8.47
		l-10.39-35.05c13.05-4.9,25.55-11.08,37.32-18.43l32.31,47.76c-0.71,1.5-1.27,3.09-1.59,4.8c-2.1,10.88,5.02,21.39,15.89,23.49
		s21.39-5.02,23.49-15.89c2.1-10.88-5.02-21.4-15.89-23.49c-1.7-0.33-3.39-0.41-5.04-0.3l-32.45-47.96
		c18.27-14.05,34.23-31.16,47.08-50.72l34.2,22.21c-0.1,1.07-0.09,2.16,0.14,3.27c1.26,5.92,7.08,9.7,13,8.44
		c5.92-1.26,9.7-7.08,8.44-13c-1.26-5.92-7.08-9.7-13-8.44c-1.11,0.24-2.1,0.67-3.04,1.2l-34.36-22.31
		c9.06-15.39,16.28-32.13,21.23-50.03l52.32,10.09c2.31,6.46,7.85,11.58,15.08,12.97c10.88,2.1,21.4-5.02,23.49-15.89
		C1405.39,3295.24,1398.28,3284.72,1387.4,3282.62z"/>
	<path class="st8" d="M1120.35,2836.93c-225.46,0-408.22,182.77-408.22,408.22c0,225.45,182.77,408.22,408.22,408.22
		c225.45,0,408.22-182.77,408.22-408.22C1528.58,3019.69,1345.81,2836.93,1120.35,2836.93z M1120.35,3593.59
		c-192.44,0-348.44-156-348.44-348.44c0-192.44,156-348.44,348.44-348.44c192.44,0,348.44,156,348.44,348.44
		C1468.79,3437.59,1312.79,3593.59,1120.35,3593.59z"/>
	
		<rect x="1066" y="2845.7" transform="matrix(0.788 0.6157 -0.6157 0.788 2224.187 7.1763)" class="st8" width="71.34" height="775.37"/>
</g>
</svg>
