<svg width="4500" height="3500" xmlns="http://www.w3.org/2000/svg" xml:space="preserve" version="1.1">

 <g>
  <title>Layer 1</title>
  <g id="svg_1">
   <path id="svg_2" fill="#B27761" d="m3265.9,1130.06889l253.2,385.8l332.5,-256.6l-331.2,-387.6l-17.3,-159l-338,-14.6l-375.1,23.9c0,0 -27.8,134.8 95.9,320.3c123.8,185.4 380,87.8 380,87.8z" class="st0"/>
   <path id="svg_3" fill="#432C22" d="m2900.1,1001.46889c0,0 31.2,6 37.8,-25.2c-0.1,0 23.2,86.2 -37.8,25.2z" class="st1"/>
   <path id="svg_4" fill="#432C22" d="m2972.5,961.96889l318,-167.3c0,0 89.2,-26 -306.4,188.5" class="st1"/>
   <path id="svg_5" fill="#D9DAE0" d="m2880,1033.06889c0,0 -33,149.9 10.8,203c43.7,53.1 277.1,225.3 389.8,46.4l109.3,-144.5l-139.9,-241.9c0,0 -308.5,290 -370,137z" class="st2"/>
   <path id="svg_6" fill="#D9DAE0" d="m3250,920.66889c0,0 68.9,-129.2 82.8,-140.5l-22.5,-8.6l-72.3,145.1l12,4z" class="st2"/>
   <ellipse id="svg_7" stroke-miterlimit="9.9994" stroke-width="19.9988" stroke="#432C22" fill="none" ry="101.1" rx="57.3" cy="1284.20893" cx="3940.04864" class="st3" transform="matrix(0.8424 -0.5388 0.5388 0.8424 -1087.12 2034.03)"/>
   <g id="svg_8">
    <path id="svg_9" fill="#05314C" d="m1471.4,962.76889c0,0 84.8,-77.1 0,-186.4c-84.8,-109.2 -250.3,-184.4 -457.3,-178.8c-207.1,5.7 -329.4,227.8 -329.4,227.8s-150.6,280.4 32,466.8c0,0 42.6,37.6 7.5,69.3c-35.1,31.7 -333.6,40.4 -333.6,40.4s-170.4,31.5 -237.4,121.9c-66.9,90.3 -271.9,446.7 79.5,542.9c351.4,96.2 480.2,-49.3 480.2,-49.3l519.5,-624l224.6,-355.9l14.4,-74.7z" class="st4"/>
    <path id="svg_10" fill="#058498" d="m732.1,1330.36889l-13.4,28.4c0,0 97,107.9 251.8,68.6l11.7,-65.3c0,0.1 -101.2,48.6 -250.1,-31.7z" class="st5"/>
    <g id="svg_11">
     <rect id="svg_12" fill="#D8D9DD" height="745.9" width="413.6" class="st6" y="2766.06889" x="1294.1"/>
     <path id="svg_13" fill="#D8D9DD" d="m104.6,2509.76889l265.1,13.3l-71.5,994.2l1179.8,-5.3l129.9,-978.2l172.3,-5.3c0,0 68.9,-347.3 -100.8,-448c-169.7,-100.7 -524.9,-182.9 -524.9,-182.9s-509,-90.1 -938.6,196.2c0,-0.2 -124.6,108.5 -111.3,416z" class="st6"/>
     <rect id="svg_14" fill="#B3765B" height="1002.2" width="249.2" class="st7" y="2509.76889" x="125.8"/>
     <rect id="svg_15" fill="#B3765B" height="1002.2" width="249.2" class="st7" y="2509.76889" x="1517.7"/>
    </g>
    <path id="svg_16" fill="#B3765B" d="m964.1,1357.96889l-208.6,533.8c0,0 -10.6,351.7 365.9,196.2c0,0 102.5,-49.5 100.8,-205c-1.7,-155.5 17.7,-252.7 17.7,-252.7s10.6,-47.7 152,-24.8c141.5,22.9 136.1,-30 136.1,-30l3.6,-70.7c0,0 11.1,-29.6 29.6,-29.6c18.6,0 -2,-27.8 -2,-27.8l-14.6,-30.4l51.7,-17.9c0,0 -9.9,-53 3.3,-72.3c0,0 9.2,-37.1 36.4,-39.1c27.2,-1.9 56.3,-31.2 -13.9,-78.9c-70.2,-47.7 -143.1,-129.9 -128.6,-205.4l-2.3,-71.3c0,0 -313.1,4.6 -408.6,284.7c0,0 -92.8,-147.6 -147.6,-25.6c0,0 -21.2,55.7 29.1,131.6c0,-0.1 11.5,3.5 0,35.2z" class="st7"/>
    <path id="svg_17" fill="#432C22" d="m1380.1,1131.16889c2.3,0 48.7,9.9 71.6,-22.2c0,0 20.9,44.5 -20.9,63.6s-50.7,-41.4 -50.7,-41.4z" class="st1"/>
    <path id="svg_18" fill="#432C22" d="m1513.9,1416.46889c0,0 46.3,-29.1 87.5,-22.1c0,0 26.1,29.1 -47.1,30.8c0,0 28.9,37.7 17.9,48.1c-11,10.6 -26.3,7.2 -58.3,-56.8z" class="st1"/>
    <path id="svg_19" stroke-miterlimit="10" stroke-width="16" stroke="#432C22" fill="none" d="m1304.3,1060.56889c0,0 51.7,-77.7 142.7,-58.4" class="st8"/>
    <path id="svg_20" fill="#058498" d="m3008.8,2498.56889c-5.3,-0.9 -296.9,-28.3 -332.3,-94.6c0,0 -74.2,-78.7 -100.8,-182.9c-26.5,-104.2 -192.6,-53.9 -192.6,-53.9l2.2,51.7c0,0 48.6,16.3 71.2,7.5c0,0 -39.8,145.3 20.3,195.8c60.1,50.3 90.1,109.6 181.2,111.3l329.7,223.2l21.1,-258.1z" class="st5"/>
    <path id="svg_21" fill="#0E4862" d="m2467.3,2358.16889c0,0 -161.7,23.9 -192.2,-24.6l-10.6,-32.5l-76.5,-2.6c0,0 -75,-26.3 16.8,-33.6l80.7,0l1.2,-19.9l-98.8,-1.2c0,0 -76.2,-19.6 0,-29.8l139.5,-5l10.3,-19.6l-136.9,0c0,0 -65.3,-13.6 0.6,-25.2l162.7,-9.4l4,47.8l65.3,0l44.5,18.3l-10.6,137.3z" class="st9"/>
    <g id="svg_22">
     <rect id="svg_23" fill="#058498" height="8.4" width="228.7" class="st5" transform="matrix(0.6017 -0.7987 0.7987 0.6017 -2574.64 3475.83)" y="3174.33324" x="3581.27338"/>
     <g id="svg_24">
      <rect id="svg_25" fill="#058498" height="15.9" width="190.8" class="st5" transform="matrix(0.6017 -0.7987 0.7987 0.6017 -2158.16 3552.97)" y="2791.63324" x="3885.77338"/>
      <rect id="svg_26" fill="#058498" height="82.8" width="20.2" class="st5" transform="matrix(0.6017 -0.7987 0.7987 0.6017 -2076.54 3568.07)" y="2683.83324" x="4027.07338"/>
      <rect id="svg_27" fill="#D9DAE0" height="72.9" width="310.7" class="st2" transform="matrix(0.6017 -0.7987 0.7987 0.6017 -2356.16 3516.31)" y="2943.33324" x="3690.07338"/>
     </g>
    </g>
    <path id="svg_28" fill="#058498" d="m2460,2286.76889c0,0 -80.9,-44.7 -101.6,-71.6c-20.8,-27 -68.7,-1.7 -20.6,46c48,47.7 57.3,100.8 131.1,121.5c73.7,20.9 -8.9,-95.9 -8.9,-95.9z" class="st5"/>
    <path id="svg_29" fill="#058498" d="m2654.8,2979.26889l0,321.4l-370.4,-166.4c0,0 -135,27.8 -182.3,-35.8c-47.3,-63.6 -125.5,-78.3 -187.4,-35.3l-58.4,43.7c0,0 -65.4,43.3 -25.6,-30c0,0 54.3,-60.1 98.6,-70.7c0,0 -96.7,37.6 -128.6,68c0,0 -65.9,40.7 -22.5,-33.1c0,0 52.2,-47.7 116.6,-71.1l-119.3,42.8c0,0 -84.3,27 -20.3,-38c0,0 94.1,-68 190.4,-78.7c96.3,-10.6 207.5,51.3 296.3,89l412.9,-5.8z" class="st5"/>
    <path id="svg_30" fill="#058498" d="m2808.1,764.66889l367,8.8c0,0 109.3,43.7 133.9,39.8c0,0 96.1,-120.6 142.5,-14.6c0,0 19.2,32.5 18.6,110c-0.6,77.5 217.4,84.1 217.4,84.1s300.4,-40.9 132.6,-334.2c-167.9,-293.4 -749.4,-495.8 -932.4,-339.3c-182.9,156.4 -249.7,386.1 -79.6,445.4z" class="st5"/>
    <path id="svg_31" fill="#9DB4B7" d="m1216,2786.26889c-12.8,-2.1 -25.1,2.3 -33.5,10.9l-28,-4.8c2.4,-39.9 -6.5,-80.6 -27.9,-116.9l22.8,-16.8c11.4,3.9 24.5,2.2 34.8,-5.5c17,-12.5 20.5,-36.3 8,-53.3c-12.5,-17 -36.3,-20.5 -53.3,-8c-10.5,7.7 -15.7,19.7 -15.4,31.7l-22.8,16.8c-26.7,-29.1 -60.2,-49.1 -96.3,-59.2l4.8,-28c10.9,-5.2 19.2,-15.3 21.3,-28.1c3.6,-20.7 -10.5,-40.4 -31.2,-43.8c-20.7,-3.6 -40.4,10.5 -43.8,31.2c-2.1,12.8 2.3,25.1 10.9,33.5l-4.8,28c-39.9,-2.4 -80.6,6.5 -116.9,27.9l-16.8,-22.8c3.9,-11.4 2.2,-24.5 -5.5,-34.8c-12.5,-17 -36.3,-20.5 -53.3,-8c-17,12.5 -20.5,36.3 -8,53.3c7.7,10.5 19.7,15.7 31.7,15.4l16.8,22.8c-29.1,26.7 -49.1,60.2 -59.2,96.3l-28,-4.8c-5.2,-10.9 -15.3,-19.2 -28.1,-21.3c-20.7,-3.6 -40.4,10.5 -43.8,31.2c-3.6,20.7 10.5,40.4 31.2,43.8c12.8,2.1 25.1,-2.3 33.5,-10.9l28,4.8c-2.4,39.9 6.5,80.6 27.9,116.9l-22.8,16.8c-11.4,-3.9 -24.5,-2.2 -34.8,5.5c-17,12.5 -20.5,36.3 -8,53.3c12.5,16.9 36.3,20.5 53.3,8c10.5,-7.7 15.7,-19.7 15.4,-31.7l22.8,-16.8c26.7,29.1 60.2,49.1 96.3,59.2l-4.8,28c-10.9,5.2 -19.2,15.3 -21.3,28.1c-3.6,20.7 10.5,40.4 31.2,43.8c20.7,3.6 40.4,-10.5 43.8,-31.2c2.1,-12.8 -2.3,-25.1 -10.9,-33.5l4.8,-28c39.9,2.4 80.6,-6.5 116.9,-27.9l16.8,22.8c-3.9,11.4 -2.2,24.5 5.5,34.8c12.5,17 36.3,20.5 53.3,8s20.5,-36.3 8,-53.3c-7.7,-10.5 -19.7,-15.7 -31.7,-15.4l-16.8,-22.8c29.1,-26.7 49.1,-60.2 59.2,-96.3l28,4.8c5.2,10.9 15.3,19.2 28.1,21.3c20.7,3.6 40.4,-10.5 43.8,-31.2c3.5,-20.6 -10.5,-40.3 -31.2,-43.8zm-338,12.9c-17,12.5 -40.8,8.9 -53.3,-8c-12.5,-17 -8.9,-40.8 8,-53.3c17,-12.5 40.8,-8.9 53.3,8c12.5,17 9,40.8 -8,53.3zm73.2,86.2c-9.6,7.1 -23.2,5.1 -30.4,-4.6c-7.1,-9.6 -5.1,-23.2 4.6,-30.4c9.6,-7.1 23.2,-5.1 30.4,4.6c7.2,9.6 5.1,23.3 -4.6,30.4zm49.3,-94.4c-40.6,-4.9 -69.6,-41.6 -64.8,-82.2s41.6,-69.6 82.2,-64.8c40.6,4.9 69.6,41.6 64.8,82.2c-4.7,40.6 -41.6,69.7 -82.2,64.8z" class="st10"/>
    <path id="svg_32" fill="#6C8E93" d="m948.8,2295.06889c-260.1,0 -471.1,210.9 -471.1,471.1c0,260.1 210.9,471.1 471.1,471.1s471.1,-210.9 471.1,-471.1c0,-260.2 -210.9,-471.1 -471.1,-471.1zm0,873.1c-222.1,0 -402.1,-180.1 -402.1,-402.1s180.1,-402.1 402.1,-402.1s402.1,180.1 402.1,402.1s-180.1,402.1 -402.1,402.1z" class="st11"/>
    <rect id="svg_33" fill="#6C8E93" height="82.3" width="894.8" class="st11" transform="matrix(0.6157 -0.788 0.788 0.6157 -3304.13 2522.97)" y="3440.65802" x="1964.49006"/>
   </g>
   <path id="svg_34" fill="#D9DAE0" opacity="0.9" d="m3352.1,1152.96889c0,0 102.1,-134 117.9,-232.3l21.9,23.5c0,0 -104.7,222.7 -128.6,225.3c-23.7,2.7 -11.2,-16.5 -11.2,-16.5z" class="st12"/>
   <g id="svg_35">
    <polyline id="svg_36" fill="#F8F9FA" points="2646.699882507324,2979.1687240600586 3144.699882507324,2950.9690170288086 3187.100028991699,3429.9690170288086 2646.699882507324,3300.6687240600586 " class="st13"/>
    <path id="svg_37" fill="#F8F9FA" d="m3451.9,1521.16889c0,0 228,-273 336.7,-320.8c0,0 389.8,363.2 506.4,1063.1c116.6,699.9 172.3,1235.4 172.3,1235.4l-1797.6,0c0,0.1 198.9,-1078.9 782.2,-1977.7z" class="st13"/>
   </g>
   <g id="svg_38" opacity="0.9" class="st14">
    <path id="svg_39" fill="#68A2AA" d="m2922,2983.26889c0,0 232.4,-30 281.9,-22.9c0,0 91.9,-651.3 212.1,-896.9c0,0 -164.4,601 -190.9,940.3l-21.5,-24.1c-0.1,-0.2 -110.9,-8.5 -281.6,3.6z" class="st15"/>
    <path id="svg_40" fill="#68A2AA" d="m2846.9,3341.16889c0,0 869.6,498.7 1003.9,-878.3c0,0 -10.7,1376.7 -1003.9,878.3z" class="st15"/>
   </g>
  </g>
 </g>
</svg>