<svg width="4200" height="3000" xmlns="http://www.w3.org/2000/svg" xml:space="preserve" version="1.1">

 <g>
  <title>Layer 1</title>
  <g id="svg_36">
   <rect id="svg_2" fill="#D8D9DD" height="690.16" width="382.69" class="st0" y="2326.40943" x="1210.89236"/>
   <path id="svg_3" fill="#05314C" d="m375.18236,1733.55943c0,0 -545.83,-85.86 -251.45,-516.39c0,0 78.5,-110.39 186.44,-131.24c107.94,-20.85 192.57,-114.07 198.71,-283.34s174.17,-491.86 442.8,-462.42c268.62,29.44 304.19,90.77 304.19,90.77s153.32,122.66 111.62,209.75s-220.79,309.1 -220.79,309.1l-251.45,429.3l-299.29,290.7l-220.78,63.77z" class="st1"/>
   <path id="svg_4" fill="#D8D9DD" d="m110.23236,2089.26943l245.32,12.27l-66.24,919.94l1091.66,-4.91l120.21,-905.22l159.46,-4.91c0,0 63.78,-321.37 -93.22,-414.59s-485.73,-169.27 -485.73,-169.27s-471.01,-83.41 -868.42,181.53c0,0.02 -115.3,100.6 -103.04,385.16z" class="st0"/>
   <rect id="svg_5" fill="#B3765B" height="927.3" width="230.6" class="st2" y="2089.26943" x="129.86236"/>
   <rect id="svg_6" fill="#B3765B" height="927.3" width="230.6" class="st2" y="2089.26943" x="1417.74236"/>
   <path id="svg_7" fill="#B3765B" d="m883.80236,1032.76943l-192.98,493.9c0,0 -9.81,325.45 338.54,181.53c0,0 94.86,-45.79 93.22,-189.71s16.35,-233.87 16.35,-233.87s9.81,-44.16 140.65,-22.9c130.84,21.26 125.93,-27.8 125.93,-27.8l3.27,-65.42c0,0 10.22,-27.39 27.39,-27.39c17.17,0 -1.84,-25.76 -1.84,-25.76l-13.49,-28.21l47.84,-16.56c0,0 -9.2,-49.06 3.07,-66.85c0,0 8.59,-34.34 33.73,-36.18s52.13,-28.82 -12.88,-72.98c-65.01,-44.16 -132.47,-120.21 -118.98,-190.12l-2.15,-65.93c0,0 -289.78,4.19 -378.09,263.41c0,0 -85.86,-136.56 -136.56,-23.71c0,0 -19.63,51.52 26.98,121.84c0,0.01 10.63,3.28 0,32.71z" class="st2"/>
   <path id="svg_8" fill="#432C22" d="m1268.74236,822.81943c2.15,0 45.08,9.2 66.24,-20.55c0,0 19.32,41.09 -19.32,58.88c-38.64,17.79 -46.92,-38.33 -46.92,-38.33z" class="st3"/>
   <path id="svg_9" fill="#432C22" d="m1392.60236,1086.81943c0,0 42.87,-26.98 81,-20.43c0,0 24.17,26.95 -43.61,28.45c0,0 26.75,34.8 16.52,44.56s-24.41,6.74 -53.91,-52.58z" class="st3"/>
   <path id="svg_10" stroke-miterlimit="10" stroke-width="16" stroke="#432C22" fill="none" d="m1198.62236,757.60943c0,0 47.84,-71.96 132.06,-53.97" class="st4"/>
   <path id="svg_11" fill="#B27761" d="m3013.70236,821.80943l234.28,356.94l307.7,-237.43l-306.47,-358.7l-15.95,-147.19l-312.78,-13.49l-347.12,22.08c0,0 -25.76,124.7 88.72,296.42s351.62,81.37 351.62,81.37z" class="st5"/>
   <path id="svg_12" fill="#058498" d="m2775.75236,2088.04943c-4.91,-0.82 -274.75,-26.17 -307.46,-87.5c0,0 -68.69,-72.78 -93.22,-169.27c-24.53,-96.49 -178.26,-49.88 -178.26,-49.88l2.04,47.84c0,0 44.97,15.13 65.83,6.95c0,0 -36.8,134.52 18.81,181.13c55.6,46.61 83.41,101.4 167.63,103.03l305.01,206.48l19.62,-238.78z" class="st6"/>
   <path id="svg_13" fill="#0E4862" d="m2274.69236,1958.23943c0,0 -149.64,22.08 -177.85,-22.69l-9.81,-30.05l-70.82,-2.45c0,0 -69.42,-24.33 15.62,-31.07l74.62,0l1.17,-18.42l-91.41,-1.11c0,0 -70.51,-18.09 0,-27.6l129.08,-4.6l9.52,-18.09l-126.65,0c0,0 -60.41,-12.57 0.61,-23.31l150.56,-8.7l3.68,44.27l60.41,0l41.09,16.87l-9.82,126.95z" class="st7"/>
   <path id="svg_14" fill="#ffffff" d="m3180.52236,1168.92943c0,0 210.97,-252.68 311.55,-296.83c0,0 360.62,336.08 468.56,983.72s159.46,1143.18 159.46,1143.18l-1663.26,0c0,0 183.99,-998.44 723.69,-1830.07z" class="st8"/>
   <path id="svg_15" fill="#432C22" d="m2675.17236,702.82943c0,0 28.82,5.52 34.96,-23.31c-0.01,0.01 21.46,79.73 -34.96,23.31z" class="st3"/>
   <path id="svg_16" fill="#432C22" d="m2742.24236,666.26943l294.2,-154.79c0,0 82.52,-24.07 -283.5,174.41" class="st3"/>
   <path id="svg_17" fill="#D9DAE0" d="m2656.63236,732.13943c0,0 -30.53,138.73 9.95,187.79s256.36,208.52 360.62,42.93l101.19,-133.7l-129.4,-223.85c0,0.01 -285.45,268.38 -342.36,126.83z" class="st9"/>
   <path id="svg_18" fill="#D9DAE0" d="m3103.86236,813.21943c0,0 94.45,-123.96 109.17,-214.99l20.24,21.81c0,0 -96.9,206.07 -118.98,208.52c-22.08,2.45 -10.43,-15.34 -10.43,-15.34z" class="st9"/>
   <path id="svg_19" fill="#D9DAE0" d="m2998.99236,628.00943c0,0 63.78,-119.59 76.66,-130.02l-20.85,-7.97l-66.85,134.31l11.04,3.68z" class="st9"/>
   <g id="svg_20">
    <rect id="svg_21" fill="#058498" height="211.62" width="7.77" class="st6" transform="matrix(0.7987 0.6017 -0.6017 0.7987 2227.29 -758.587)" y="2249.19255" x="1506.04016"/>
    <g id="svg_22">
     <rect id="svg_23" fill="#058498" height="176.56" width="14.72" class="st6" transform="matrix(0.7987 0.6017 -0.6017 0.7987 2069.44 -988.178)" y="1916.00255" x="1766.79016"/>
     <rect id="svg_24" fill="#058498" height="18.71" width="76.66" class="st6" transform="matrix(0.7987 0.6017 -0.6017 0.7987 2038.53 -1033.14)" y="1926.24255" x="1787.56016"/>
     <rect id="svg_25" fill="#D9DAE0" height="287.5" width="67.46" class="st9" transform="matrix(0.7987 0.6017 -0.6017 0.7987 2144.49 -879.015)" y="2027.28255" x="1614.79016"/>
    </g>
   </g>
   <path id="svg_26" fill="#058498" d="m2267.94236,1892.20943c0,0 -74.82,-41.29 -94.04,-66.24c-19.22,-24.94 -63.56,-1.64 -19.1,42.52c44.45,44.16 53.04,93.22 121.32,112.44s-8.18,-88.72 -8.18,-88.72z" class="st6"/>
   <path id="svg_27" fill="#058498" d="m2448.25236,2532.89943l0,297.45l-342.83,-153.94c0,0 -124.91,25.76 -168.66,-33.12c-43.75,-58.88 -116.12,-72.37 -173.36,-32.71l-53.97,40.48c0,0 -60.51,40.07 -23.71,-27.8c0,0 50.29,-55.61 91.18,-65.42c0,0 -89.54,34.75 -118.98,62.96c0,0 -60.92,37.62 -20.85,-30.66c0,0 48.25,-44.16 107.94,-65.83l-110.39,39.66c0,0 -78.09,24.94 -18.81,-35.16c0,0 87.09,-62.96 176.22,-72.78c89.13,-9.81 191.96,47.43 274.14,82.39l382.08,-5.52z" class="st6"/>
   <polyline id="svg_28" fill="#ffffff" points="2448.252377510071,2532.8993377685547 2909.042416572571,2506.7294158935547 2948.292416572571,2949.9296112060547 2448.252377510071,2830.3395233154297 " class="st8"/>
   <path id="svg_29" fill="#68A2AA" d="m2644.91236,2512.44943c0,0 215.06,-27.8 260.85,-21.26c0,0 85.04,-602.66 196.25,-829.99c0,0 -152.1,556.05 -176.63,870.06l-19.93,-22.28c0.01,0 -102.51,-7.77 -260.54,3.47z" class="st10"/>
   <path id="svg_30" fill="#68A2AA" d="m2575.40236,2843.62943c0,0 804.64,461.45 928.93,-812.69c0.01,0 -9.8,1273.89 -928.93,812.69z" class="st10"/>
   <ellipse id="svg_31" stroke-miterlimit="10" stroke-width="20" stroke="#432C22" fill="none" ry="93.53" rx="53.05" cy="715.00569" cx="3229.03145" class="st11" transform="matrix(0.8424 -0.5388 0.5388 0.8424 -407.918 1832.42)"/>
   <path id="svg_32" fill="#058498" d="m2590.12236,483.67943l339.56,8.18c0,0 101.19,40.48 123.89,36.8c0,0 88.93,-111.62 131.86,-13.49c0,0 17.79,30.05 17.17,101.81c-0.61,71.76 201.16,77.89 201.16,77.89s278.03,-37.82 122.66,-309.3c-155.37,-271.48 -693.43,-458.74 -862.7,-314.01c-169.27,144.73 -231.01,357.33 -73.6,412.12z" class="st6"/>
   <path id="svg_33" fill="#058498" d="m1156.15236,2363.87943c-7.22,-1.39 -14.28,1.29 -18.82,6.43l-51.7,-9.97c4.43,-25.32 4.04,-50.4 -0.45,-74.31l41.2,-9.7c2.53,2.9 6.47,4.41 10.5,3.55c5.92,-1.26 9.7,-7.08 8.44,-13c-1.26,-5.92 -7.08,-9.7 -13,-8.44c-4.2,0.89 -7.27,4.09 -8.29,7.98l-40.98,9.65c-4.15,-17.34 -10.47,-33.98 -18.77,-49.53l40.98,-27.72c1.5,0.71 3.09,1.27 4.8,1.59c10.88,2.1 21.39,-5.02 23.49,-15.89c2.1,-10.88 -5.02,-21.4 -15.89,-23.49c-10.88,-2.1 -21.4,5.02 -23.49,15.89c-0.33,1.7 -0.41,3.39 -0.3,5.04l-40.03,27.08c-12.88,-19.33 -28.98,-36.5 -47.69,-50.68l20.07,-30.92c1.07,0.1 2.16,0.09 3.27,-0.14c5.92,-1.26 9.7,-7.08 8.44,-13c-1.26,-5.92 -7.08,-9.7 -13,-8.44s-9.7,7.08 -8.44,13c0.24,1.1 0.67,2.1 1.2,3.04l-19.8,30.49c-17.51,-11.96 -37.08,-21.39 -58.29,-27.64l7.01,-36.36c6.46,-2.31 11.58,-7.85 12.97,-15.08c2.1,-10.88 -5.02,-21.4 -15.89,-23.49s-21.4,5.02 -23.49,15.89c-1.39,7.23 1.29,14.28 6.43,18.82l-6.83,35.39c-28.89,-5.55 -57.51,-4.82 -84.5,1.21l-7.6,-25.65c2.6,-2.54 3.9,-6.29 3.09,-10.11c-1.26,-5.92 -7.08,-9.7 -13,-8.44c-5.92,1.26 -9.7,7.08 -8.44,13c0.94,4.42 4.43,7.64 8.6,8.47l7.46,25.18c-17.94,4.94 -35.06,12.25 -50.92,21.63l-19.36,-28.61c0.71,-1.5 1.27,-3.09 1.59,-4.8c2.1,-10.88 -5.02,-21.4 -15.89,-23.49c-10.88,-2.1 -21.39,5.02 -23.49,15.89s5.02,21.4 15.89,23.49c1.7,0.33 3.39,0.41 5.04,0.3l19.22,28.41c-17.85,13.05 -33.62,28.95 -46.62,47.17l-18.87,-12.25c0.1,-1.07 0.09,-2.16 -0.14,-3.26c-1.26,-5.92 -7.08,-9.7 -13,-8.44c-5.92,1.26 -9.7,7.08 -8.44,13c1.26,5.92 7.08,9.7 13,8.44c1.11,-0.24 2.1,-0.67 3.04,-1.2l18.72,12.15c-13.27,20.67 -23.09,44.02 -28.45,69.42l-32,-6.17c-2.31,-6.46 -7.85,-11.58 -15.08,-12.97c-10.88,-2.1 -21.39,5.02 -23.49,15.89c-2.1,10.88 5.02,21.39 15.89,23.49c7.23,1.39 14.28,-1.29 18.82,-6.43l32.62,6.29c-2.68,23.95 -1.1,47.54 4.1,69.97l-21.58,5.08c-2.53,-2.9 -6.48,-4.41 -10.5,-3.55c-5.92,1.26 -9.7,7.08 -8.44,13c1.26,5.92 7.08,9.7 13,8.44c4.2,-0.89 7.27,-4.09 8.28,-7.98l21.78,-5.13c6.22,21.88 15.93,42.52 28.69,61.09l-35.89,24.28c-1.5,-0.71 -3.09,-1.27 -4.8,-1.59c-10.88,-2.1 -21.39,5.02 -23.49,15.89c-2.1,10.88 5.02,21.39 15.89,23.49c10.88,2.1 21.39,-5.02 23.49,-15.89c0.33,-1.7 0.41,-3.39 0.3,-5.05l36.84,-24.92c14.11,16.77 30.91,31.35 49.88,43.07l-15.5,23.87c-1.07,-0.1 -2.16,-0.09 -3.26,0.14c-5.92,1.26 -9.7,7.08 -8.44,13c1.26,5.92 7.08,9.7 13,8.44c5.92,-1.26 9.7,-7.08 8.44,-13c-0.23,-1.1 -0.67,-2.1 -1.2,-3.04l15.75,-24.26c18.59,10.26 39.06,17.86 61.04,22.11l-6.83,35.39c-6.46,2.31 -11.58,7.85 -12.97,15.08c-2.1,10.88 5.02,21.4 15.89,23.49c10.88,2.1 21.39,-5.02 23.49,-15.89c1.39,-7.23 -1.29,-14.28 -6.43,-18.82l7.01,-36.36c28.62,2.72 56.66,-0.6 82.76,-8.96l10.27,34.65c-2.6,2.54 -3.9,6.29 -3.09,10.11c1.26,5.92 7.08,9.7 13,8.44c5.92,-1.26 9.7,-7.08 8.44,-13c-0.94,-4.42 -4.43,-7.64 -8.6,-8.47l-10.39,-35.05c13.05,-4.9 25.55,-11.08 37.32,-18.43l32.31,47.76c-0.71,1.5 -1.27,3.09 -1.59,4.8c-2.1,10.88 5.02,21.39 15.89,23.49s21.39,-5.02 23.49,-15.89c2.1,-10.88 -5.02,-21.4 -15.89,-23.49c-1.7,-0.33 -3.39,-0.41 -5.04,-0.3l-32.45,-47.96c18.27,-14.05 34.23,-31.16 47.08,-50.72l34.2,22.21c-0.1,1.07 -0.09,2.16 0.14,3.27c1.26,5.92 7.08,9.7 13,8.44c5.92,-1.26 9.7,-7.08 8.44,-13c-1.26,-5.92 -7.08,-9.7 -13,-8.44c-1.11,0.24 -2.1,0.67 -3.04,1.2l-34.36,-22.31c9.06,-15.39 16.28,-32.13 21.23,-50.03l52.32,10.09c2.31,6.46 7.85,11.58 15.08,12.97c10.88,2.1 21.4,-5.02 23.49,-15.89c2.1,-10.87 -5.01,-21.39 -15.89,-23.49z" class="st6"/>
   <path id="svg_34" fill="#ffffff" d="m889.10236,1918.18943c-225.46,0 -408.22,182.77 -408.22,408.22c0,225.45 182.77,408.22 408.22,408.22c225.45,0 408.22,-182.77 408.22,-408.22c0.01,-225.46 -182.76,-408.22 -408.22,-408.22zm0,756.66c-192.44,0 -348.44,-156 -348.44,-348.44c0,-192.44 156,-348.44 348.44,-348.44c192.44,0 348.44,156 348.44,348.44c0,192.44 -156,348.44 -348.44,348.44z" class="st8"/>
   <rect id="svg_35" fill="#ffffff" height="775.37" width="71.34" class="st8" transform="matrix(0.788 0.6157 -0.6157 0.788 2224.19 7.1763)" y="2264.12934" x="318.13108"/>
  </g>
 </g>
</svg>