<?xml version="1.0" encoding="utf-8"?>
<!-- Generator: Adobe Illustrator 25.0.0, SVG Export Plug-In . SVG Version: 6.00 Build 0)  -->
<svg version="1.1" id="Ebene_1" xmlns="http://www.w3.org/2000/svg" xmlns:xlink="http://www.w3.org/1999/xlink" x="0px" y="0px"
	 viewBox="0 0 4500 5400" style="enable-background:new 0 0 4500 5400;" xml:space="preserve">
<style type="text/css">
	.st0{opacity:0.79;}
	.st1{fill:#05314C;}
	.st2{fill:#058498;}
	.st3{fill:#D8D9DD;}
	.st4{fill:#B3765B;}
	.st5{fill:#432C22;}
	.st6{fill:none;stroke:#432C22;stroke-width:16;stroke-miterlimit:10;}
	.st7{fill:#B27761;}
	.st8{fill:#0E4862;}
	.st9{fill:#8CBDC6;}
	.st10{fill:#D9DAE0;}
	.st11{fill:#68A2AA;}
	.st12{fill:none;stroke:#432C22;stroke-width:19.9988;stroke-miterlimit:9.9994;}
	.st13{fill:#9DB4B7;}
	.st14{fill:#6C8E93;}
</style>
<g class="st0">
	<path class="st1" d="M1509.7,1680.6c0,0,83.5-76,0-183.6s-246.6-181.7-450.6-176.2c-204,5.6-324.5,224.4-324.5,224.4
		s-148.4,276.3,31.5,459.9c0,0,42,37,7.4,68.3c-34.6,31.2-328.7,39.8-328.7,39.8s-167.9,31-233.9,120.1
		c-65.9,89-267.9,440.1,78.3,534.9s473.1-48.6,473.1-48.6l511.8-614.8l221.3-350.6L1509.7,1680.6z"/>
	<path class="st2" d="M781.3,2042.8l-13.2,28c0,0,95.6,106.3,248.1,67.6l11.5-64.3C1027.7,2074.1,928,2121.9,781.3,2042.8z"/>
	<g>
		<rect x="1335" y="3457.3" class="st3" width="407.5" height="734.9"/>
		<path class="st3" d="M163.1,3204.8l261.2,13.1l-70.5,979.5l1162.4-5.2l128-963.8l169.8-5.2c0,0,67.9-342.2-99.3-441.4
			s-517.2-180.2-517.2-180.2s-501.5-88.8-924.7,193.3C272.8,2794.7,150,2901.8,163.1,3204.8z"/>
		<rect x="184" y="3204.8" class="st4" width="245.5" height="987.4"/>
		<rect x="1555.3" y="3204.8" class="st4" width="245.5" height="987.4"/>
	</g>
	<path class="st4" d="M1009.9,2070l-205.5,525.9c0,0-10.4,346.5,360.5,193.3c0,0,101-48.8,99.3-202s17.4-249,17.4-249
		s10.4-47,149.8-24.4s134.1-29.6,134.1-29.6l3.5-69.7c0,0,10.9-29.2,29.2-29.2s-2-27.4-2-27.4l-14.4-30l50.9-17.6
		c0,0-9.8-52.2,3.3-71.2c0,0,9.1-36.6,35.9-38.5s55.5-30.7-13.7-77.7s-141-128-126.7-202.4l-2.3-70.2c0,0-308.5,4.5-402.6,280.5
		c0,0-91.4-145.4-145.4-25.2c0,0-20.9,54.9,28.7,129.7C1009.9,2035.2,1021.2,2038.7,1009.9,2070z"/>
	<path class="st5" d="M1419.8,1846.5c2.3,0,48,9.8,70.5-21.9c0,0,20.6,43.8-20.6,62.7S1419.8,1846.5,1419.8,1846.5z"/>
	<path class="st5" d="M1551.6,2127.6c0,0,45.6-28.7,86.2-21.8c0,0,25.7,28.7-46.4,30.3c0,0,28.5,37.1,17.6,47.4
		C1598.2,2194,1583.1,2190.7,1551.6,2127.6z"/>
	<path class="st6" d="M1345.1,1777c0,0,50.9-76.6,140.6-57.5"/>
	<path class="st7" d="M3277.7,1845.4l249.5,380.1l327.6-252.8l-326.3-381.9l-17-156.7l-333-14.4l-369.6,23.5
		c0,0-27.4,132.8,94.5,315.6S3277.7,1845.4,3277.7,1845.4z"/>
	<path class="st2" d="M3024.4,3193.7c-5.2-0.9-292.5-27.9-327.4-93.2c0,0-73.1-77.5-99.3-180.2c-26.1-102.7-189.8-53.1-189.8-53.1
		l2.2,50.9c0,0,47.9,16.1,70.1,7.4c0,0-39.2,143.2,20,192.9c59.2,49.6,88.8,108,178.5,109.7l324.8,219.9L3024.4,3193.7z"/>
	<path class="st8" d="M2490.9,3055.4c0,0-159.3,23.5-189.4-24.2l-10.4-32l-75.4-2.6c0,0-73.9-25.9,16.6-33.1h79.5l1.2-19.6
		l-97.3-1.2c0,0-75.1-19.3,0-29.4l137.4-4.9l10.1-19.3h-134.9c0,0-64.3-13.4,0.6-24.8l160.3-9.3l3.9,47.1h64.3l43.8,18
		L2490.9,3055.4z"/>
	<path class="st9" d="M3455.4,2215c0,0,224.6-269,331.7-316.1c0,0,384,357.8,498.9,1047.4c114.9,689.6,169.8,1217.2,169.8,1217.2
		h-1771C2684.8,4163.6,2880.7,3100.5,3455.4,2215z"/>
	<path class="st5" d="M2917.3,1718.7c0,0,30.7,5.9,37.2-24.8C2954.5,1693.9,2977.4,1778.8,2917.3,1718.7z"/>
	<path class="st5" d="M2988.7,1679.8L3302,1515c0,0,87.9-25.6-301.9,185.7"/>
	<path class="st10" d="M2897.5,1749.9c0,0-32.5,147.7,10.6,200s273,222,384,45.7l107.7-142.4L3262,1614.9
		C3262.1,1614.9,2958.1,1900.6,2897.5,1749.9z"/>
	<path class="st10" d="M3373.7,1836.3c0,0,100.6-132,116.2-228.9l21.6,23.2c0,0-103.2,219.4-126.7,222S3373.7,1836.3,3373.7,1836.3z
		"/>
	<path class="st10" d="M3262.1,1639.1c0,0,67.9-127.3,81.6-138.4l-22.2-8.5l-71.2,143L3262.1,1639.1z"/>
	<g>
		
			<rect x="2102.9" y="3128.7" transform="matrix(0.6017 -0.7987 0.7987 0.6017 -1619.7694 3017.3767)" class="st2" width="225.3" height="8.3"/>
		<g>
			
				<rect x="2403" y="2751.5" transform="matrix(0.6017 -0.7987 0.7987 0.6017 -1209.4368 3093.3831)" class="st2" width="188" height="15.7"/>
			
				<rect x="2542.1" y="2645.4" transform="matrix(0.6017 -0.7987 0.7987 0.6017 -1129.0271 3108.2546)" class="st2" width="19.9" height="81.6"/>
			
				<rect x="2210.2" y="2901" transform="matrix(0.6017 -0.7987 0.7987 0.6017 -1404.5171 3057.2625)" class="st10" width="306.1" height="71.8"/>
		</g>
	</g>
	<path class="st2" d="M2483.7,2985.1c0,0-79.7-44-100.1-70.5c-20.5-26.6-67.7-1.7-20.3,45.3c47.3,47,56.5,99.3,129.2,119.7
		C2565.1,3100.1,2483.7,2985.1,2483.7,2985.1z"/>
	<path class="st2" d="M2675.7,3667.3V3984l-365-163.9c0,0-133,27.4-179.6-35.3s-123.6-77.1-184.6-34.8l-57.5,43.1
		c0,0-64.4,42.7-25.2-29.6c0,0,53.5-59.2,97.1-69.7c0,0-95.3,37-126.7,67c0,0-64.9,40.1-22.2-32.6c0,0,51.4-47,114.9-70.1
		l-117.5,42.2c0,0-83.1,26.6-20-37.4c0,0,92.7-67,187.6-77.5c94.9-10.4,204.4,50.5,291.9,87.7L2675.7,3667.3z"/>
	<polyline class="st9" points="2675.7,3667.3 3166.3,3639.5 3208.1,4111.4 2675.7,3984 	"/>
	<path class="st11" d="M2885.1,3645.5c0,0,229-29.6,277.7-22.6c0,0,90.5-641.7,209-883.7c0,0-162,592.1-188.1,926.4l-21.2-23.7
		C3162.5,3641.8,3053.3,3633.6,2885.1,3645.5z"/>
	<path class="st11" d="M2811.1,3998.2c0,0,856.8,491.3,989.1-865.3C3800.2,3132.8,3789.7,4489.2,2811.1,3998.2z"/>
	
		<ellipse transform="matrix(0.8424 -0.5388 0.5388 0.8424 -458.1307 1854.1051)" class="st12" cx="2940.9" cy="1710.3" rx="56.5" ry="99.6"/>
	<path class="st2" d="M2826.7,1485.4l361.6,8.7c0,0,107.7,43.1,131.9,39.2c0,0,94.7-118.8,140.4-14.4c0,0,18.9,32,18.3,108.4
		c-0.6,76.4,214.2,82.9,214.2,82.9s296-40.3,130.6-329.3c-165.4-289.1-738.3-488.5-918.6-334.3
		C2724.9,1200.7,2659.1,1427,2826.7,1485.4z"/>
	<path class="st13" d="M1258.1,3477.2c-12.6-2.1-24.7,2.3-33,10.7l-27.6-4.7c2.4-39.3-6.4-79.4-27.5-115.2l22.5-16.6
		c11.2,3.8,24.1,2.2,34.3-5.4c16.7-12.3,20.2-35.8,7.9-52.5s-35.8-20.2-52.5-7.9c-10.3,7.6-15.5,19.4-15.2,31.2l-22.5,16.6
		c-26.3-28.7-59.3-48.4-94.9-58.3l4.7-27.6c10.7-5.1,18.9-15.1,21-27.7c3.5-20.4-10.3-39.8-30.7-43.2c-20.4-3.5-39.8,10.3-43.2,30.7
		c-2.1,12.6,2.3,24.7,10.7,33l-4.7,27.6c-39.3-2.4-79.4,6.4-115.2,27.5l-16.6-22.5c3.8-11.2,2.2-24.1-5.4-34.3
		c-12.3-16.7-35.8-20.2-52.5-7.9s-20.2,35.8-7.9,52.5c7.6,10.3,19.4,15.5,31.2,15.2l16.6,22.5c-28.7,26.3-48.4,59.3-58.3,94.9
		l-27.6-4.7c-5.1-10.7-15.1-18.9-27.7-21c-20.4-3.5-39.8,10.3-43.2,30.7c-3.5,20.4,10.3,39.8,30.7,43.2c12.6,2.1,24.7-2.3,33-10.7
		l27.6,4.7c-2.4,39.3,6.4,79.4,27.5,115.2l-22.5,16.6c-11.2-3.8-24.1-2.2-34.3,5.4c-16.7,12.3-20.2,35.8-7.9,52.5
		s35.8,20.2,52.5,7.9c10.3-7.6,15.5-19.4,15.2-31.2l22.5-16.6c26.3,28.7,59.3,48.4,94.9,58.3l-4.7,27.6c-10.7,5.1-18.9,15.1-21,27.7
		c-3.5,20.4,10.3,39.8,30.7,43.2c20.4,3.5,39.8-10.3,43.2-30.7c2.1-12.6-2.3-24.7-10.7-33l4.7-27.6c39.3,2.4,79.4-6.4,115.2-27.5
		l16.6,22.5c-3.8,11.2-2.2,24.1,5.4,34.3c12.3,16.7,35.8,20.2,52.5,7.9s20.2-35.8,7.9-52.5c-7.6-10.3-19.4-15.5-31.2-15.2
		l-16.6-22.5c28.7-26.3,48.4-59.3,58.3-94.9l27.6,4.7c5.1,10.7,15.1,18.9,27.7,21c20.4,3.5,39.8-10.3,43.2-30.7
		C1292.3,3500,1278.5,3480.6,1258.1,3477.2z M925.1,3489.9c-16.7,12.3-40.2,8.8-52.5-7.9s-8.8-40.2,7.9-52.5s40.2-8.8,52.5,7.9
		C945.3,3454.1,941.8,3477.6,925.1,3489.9z M997.2,3574.8c-9.5,7-22.9,5-30-4.5c-7-9.5-5-22.9,4.5-30c9.5-7,22.9-5,30,4.5
		S1006.8,3567.8,997.2,3574.8z M1045.8,3481.8c-40-4.8-68.6-41-63.8-81s41-68.6,81-63.8c40,4.8,68.6,41,63.8,81
		C1122.1,3458,1085.8,3486.6,1045.8,3481.8z"/>
	<path class="st14" d="M994.8,2993.2c-256.3,0-464.1,207.8-464.1,464.1s207.8,464.1,464.1,464.1s464.1-207.8,464.1-464.1
		C1459,3201,1251.2,2993.2,994.8,2993.2z M994.8,3853.5c-218.8,0-396.2-177.4-396.2-396.2s177.4-396.2,396.2-396.2
		s396.2,177.4,396.2,396.2S1213.6,3853.5,994.8,3853.5z"/>
	
		<rect x="530.1" y="3416.8" transform="matrix(0.6157 -0.788 0.788 0.6157 -2351.2429 2093.7439)" class="st14" width="881.6" height="81.1"/>
</g>
</svg>
