<?xml version="1.0" encoding="utf-8"?>
<!-- Generator: Adobe Illustrator 25.0.0, SVG Export Plug-In . SVG Version: 6.00 Build 0)  -->
<svg version="1.1" id="Ebene_1" xmlns="http://www.w3.org/2000/svg" xmlns:xlink="http://www.w3.org/1999/xlink" x="0px" y="0px"
	 viewBox="0 0 4500 5400" style="enable-background:new 0 0 4500 5400;" xml:space="preserve">
<style type="text/css">
	.st0{opacity:0.9;}
	.st1{fill:#B27761;}
	.st2{fill:#432C22;}
	.st3{fill:#D9DAE0;}
	.st4{fill:none;stroke:#432C22;stroke-width:19.9988;stroke-miterlimit:9.9994;}
	.st5{fill:#058498;}
	.st6{fill:#05314C;}
	.st7{fill:#D8D9DD;}
	.st8{fill:#B3765B;}
	.st9{fill:none;stroke:#432C22;stroke-width:16;stroke-miterlimit:10;}
	.st10{fill:#0E4862;}
	.st11{fill:#9DB4B7;}
	.st12{fill:#6C8E93;}
	.st13{opacity:0.9;fill:#D9DAE0;}
	.st14{fill:#F8F9FA;}
	.st15{fill:#68A2AA;}
</style>
<g class="st0">
	<path class="st1" d="M3275.9,3012.8l253.2,385.8l332.5-256.6l-331.2-387.6l-17.3-159l-338-14.6l-375.1,23.9
		c0,0-27.8,134.8,95.9,320.3C3019.7,3110.4,3275.9,3012.8,3275.9,3012.8z"/>
	<path class="st2" d="M2910.1,2884.2c0,0,31.2,6,37.8-25.2C2947.8,2859,2971.1,2945.2,2910.1,2884.2z"/>
	<path class="st2" d="M2982.5,2844.7l318-167.3c0,0,89.2-26-306.4,188.5"/>
	<path class="st3" d="M2890,2915.8c0,0-33,149.9,10.8,203c43.7,53.1,277.1,225.3,389.8,46.4l109.3-144.5l-139.9-241.9
		C3260,2778.8,2951.5,3068.8,2890,2915.8z"/>
	<path class="st3" d="M3260,2803.4c0,0,68.9-129.2,82.8-140.5l-22.5-8.6l-72.3,145.1L3260,2803.4z"/>
	
		<ellipse transform="matrix(0.8424 -0.5388 0.5388 0.8424 -1087.121 2034.025)" class="st4" cx="2934" cy="2875.7" rx="57.3" ry="101.1"/>
	<path class="st5" d="M2818.1,2647.4l367,8.8c0,0,109.3,43.7,133.9,39.8c0,0,96.1-120.6,142.5-14.6c0,0,19.2,32.5,18.6,110
		c-0.6,77.5,217.4,84.1,217.4,84.1s300.4-40.9,132.6-334.2c-167.9-293.4-749.4-495.8-932.4-339.3
		C2714.8,2358.4,2648,2588.1,2818.1,2647.4z"/>
	<g>
		<path class="st6" d="M1481.4,2845.5c0,0,84.8-77.1,0-186.4c-84.8-109.2-250.3-184.4-457.3-178.8
			c-207.1,5.7-329.4,227.8-329.4,227.8s-150.6,280.4,32,466.8c0,0,42.6,37.6,7.5,69.3c-35.1,31.7-333.6,40.4-333.6,40.4
			s-170.4,31.5-237.4,121.9c-66.9,90.3-271.9,446.7,79.5,542.9c351.4,96.2,480.2-49.3,480.2-49.3l519.5-624l224.6-355.9
			L1481.4,2845.5z"/>
		<path class="st5" d="M742.1,3213.1l-13.4,28.4c0,0,97,107.9,251.8,68.6l11.7-65.3C992.2,3244.9,891,3293.4,742.1,3213.1z"/>
		<g>
			<rect x="1304.1" y="4648.8" class="st7" width="413.6" height="745.9"/>
			<path class="st7" d="M114.6,4392.5l265.1,13.3L308.2,5400l1179.8-5.3l129.9-978.2l172.3-5.3c0,0,68.9-347.3-100.8-448
				c-169.7-100.7-524.9-182.9-524.9-182.9s-509-90.1-938.6,196.2C225.9,3976.3,101.3,4085,114.6,4392.5z"/>
			<rect x="135.8" y="4392.5" class="st8" width="249.2" height="1002.2"/>
			<rect x="1527.7" y="4392.5" class="st8" width="249.2" height="1002.2"/>
		</g>
		<path class="st8" d="M974.1,3240.7l-208.6,533.8c0,0-10.6,351.7,365.9,196.2c0,0,102.5-49.5,100.8-205
			c-1.7-155.5,17.7-252.7,17.7-252.7s10.6-47.7,152-24.8c141.5,22.9,136.1-30,136.1-30l3.6-70.7c0,0,11.1-29.6,29.6-29.6
			c18.6,0-2-27.8-2-27.8l-14.6-30.4l51.7-17.9c0,0-9.9-53,3.3-72.3c0,0,9.2-37.1,36.4-39.1c27.2-1.9,56.3-31.2-13.9-78.9
			c-70.2-47.7-143.1-129.9-128.6-205.4l-2.3-71.3c0,0-313.1,4.6-408.6,284.7c0,0-92.8-147.6-147.6-25.6c0,0-21.2,55.7,29.1,131.6
			C974.1,3205.4,985.6,3209,974.1,3240.7z"/>
		<path class="st2" d="M1390.1,3013.9c2.3,0,48.7,9.9,71.6-22.2c0,0,20.9,44.5-20.9,63.6S1390.1,3013.9,1390.1,3013.9z"/>
		<path class="st2" d="M1523.9,3299.2c0,0,46.3-29.1,87.5-22.1c0,0,26.1,29.1-47.1,30.8c0,0,28.9,37.7,17.9,48.1
			C1571.2,3366.6,1555.9,3363.2,1523.9,3299.2z"/>
		<path class="st9" d="M1314.3,2943.3c0,0,51.7-77.7,142.7-58.4"/>
		<path class="st5" d="M3018.8,4381.3c-5.3-0.9-296.9-28.3-332.3-94.6c0,0-74.2-78.7-100.8-182.9c-26.5-104.2-192.6-53.9-192.6-53.9
			l2.2,51.7c0,0,48.6,16.3,71.2,7.5c0,0-39.8,145.3,20.3,195.8c60.1,50.3,90.1,109.6,181.2,111.3l329.7,223.2L3018.8,4381.3z"/>
		<path class="st10" d="M2477.3,4240.9c0,0-161.7,23.9-192.2-24.6l-10.6-32.5l-76.5-2.6c0,0-75-26.3,16.8-33.6h80.7l1.2-19.9
			l-98.8-1.2c0,0-76.2-19.6,0-29.8l139.5-5l10.3-19.6h-136.9c0,0-65.3-13.6,0.6-25.2l162.7-9.4l4,47.8h65.3l44.5,18.3L2477.3,4240.9
			z"/>
		<g>
			
				<rect x="2083.5" y="4315.2" transform="matrix(0.6017 -0.7987 0.7987 0.6017 -2574.6355 3475.8296)" class="st5" width="228.7" height="8.4"/>
			<g>
				
					<rect x="2388" y="3932.5" transform="matrix(0.6017 -0.7987 0.7987 0.6017 -2158.1562 3552.9744)" class="st5" width="190.8" height="15.9"/>
				
					<rect x="2529.3" y="3824.7" transform="matrix(0.6017 -0.7987 0.7987 0.6017 -2076.542 3568.0686)" class="st5" width="20.2" height="82.8"/>
				
					<rect x="2192.3" y="4084.2" transform="matrix(0.6017 -0.7987 0.7987 0.6017 -2356.1587 3516.3127)" class="st3" width="310.7" height="72.9"/>
			</g>
		</g>
		<path class="st5" d="M2470,4169.5c0,0-80.9-44.7-101.6-71.6c-20.8-27-68.7-1.7-20.6,46c48,47.7,57.3,100.8,131.1,121.5
			C2552.6,4286.3,2470,4169.5,2470,4169.5z"/>
		<path class="st5" d="M2664.8,4862v321.4L2294.4,5017c0,0-135,27.8-182.3-35.8c-47.3-63.6-125.5-78.3-187.4-35.3l-58.4,43.7
			c0,0-65.4,43.3-25.6-30c0,0,54.3-60.1,98.6-70.7c0,0-96.7,37.6-128.6,68c0,0-65.9,40.7-22.5-33.1c0,0,52.2-47.7,116.6-71.1
			l-119.3,42.8c0,0-84.3,27-20.3-38c0,0,94.1-68,190.4-78.7c96.3-10.6,207.5,51.3,296.3,89L2664.8,4862z"/>
		<path class="st11" d="M1226,4669c-12.8-2.1-25.1,2.3-33.5,10.9l-28-4.8c2.4-39.9-6.5-80.6-27.9-116.9l22.8-16.8
			c11.4,3.9,24.5,2.2,34.8-5.5c17-12.5,20.5-36.3,8-53.3c-12.5-17-36.3-20.5-53.3-8c-10.5,7.7-15.7,19.7-15.4,31.7l-22.8,16.8
			c-26.7-29.1-60.2-49.1-96.3-59.2l4.8-28c10.9-5.2,19.2-15.3,21.3-28.1c3.6-20.7-10.5-40.4-31.2-43.8
			c-20.7-3.6-40.4,10.5-43.8,31.2c-2.1,12.8,2.3,25.1,10.9,33.5l-4.8,28c-39.9-2.4-80.6,6.5-116.9,27.9l-16.8-22.8
			c3.9-11.4,2.2-24.5-5.5-34.8c-12.5-17-36.3-20.5-53.3-8c-17,12.5-20.5,36.3-8,53.3c7.7,10.5,19.7,15.7,31.7,15.4l16.8,22.8
			c-29.1,26.7-49.1,60.2-59.2,96.3l-28-4.8c-5.2-10.9-15.3-19.2-28.1-21.3c-20.7-3.6-40.4,10.5-43.8,31.2
			c-3.6,20.7,10.5,40.4,31.2,43.8c12.8,2.1,25.1-2.3,33.5-10.9l28,4.8c-2.4,39.9,6.5,80.6,27.9,116.9l-22.8,16.8
			c-11.4-3.9-24.5-2.2-34.8,5.5c-17,12.5-20.5,36.3-8,53.3c12.5,16.9,36.3,20.5,53.3,8c10.5-7.7,15.7-19.7,15.4-31.7l22.8-16.8
			c26.7,29.1,60.2,49.1,96.3,59.2l-4.8,28c-10.9,5.2-19.2,15.3-21.3,28.1c-3.6,20.7,10.5,40.4,31.2,43.8
			c20.7,3.6,40.4-10.5,43.8-31.2c2.1-12.8-2.3-25.1-10.9-33.5l4.8-28c39.9,2.4,80.6-6.5,116.9-27.9l16.8,22.8
			c-3.9,11.4-2.2,24.5,5.5,34.8c12.5,17,36.3,20.5,53.3,8s20.5-36.3,8-53.3c-7.7-10.5-19.7-15.7-31.7-15.4l-16.8-22.8
			c29.1-26.7,49.1-60.2,59.2-96.3l28,4.8c5.2,10.9,15.3,19.2,28.1,21.3c20.7,3.6,40.4-10.5,43.8-31.2
			C1260.7,4692.2,1246.7,4672.5,1226,4669z M888,4681.9c-17,12.5-40.8,8.9-53.3-8c-12.5-17-8.9-40.8,8-53.3c17-12.5,40.8-8.9,53.3,8
			C908.5,4645.6,905,4669.4,888,4681.9z M961.2,4768.1c-9.6,7.1-23.2,5.1-30.4-4.6c-7.1-9.6-5.1-23.2,4.6-30.4
			c9.6-7.1,23.2-5.1,30.4,4.6C973,4747.3,970.9,4761,961.2,4768.1z M1010.5,4673.7c-40.6-4.9-69.6-41.6-64.8-82.2
			s41.6-69.6,82.2-64.8c40.6,4.9,69.6,41.6,64.8,82.2C1088,4649.5,1051.1,4678.6,1010.5,4673.7z"/>
		<path class="st12" d="M958.8,4177.8c-260.1,0-471.1,210.9-471.1,471.1c0,260.1,210.9,471.1,471.1,471.1s471.1-210.9,471.1-471.1
			C1429.9,4388.7,1219,4177.8,958.8,4177.8z M958.8,5050.9c-222.1,0-402.1-180.1-402.1-402.1s180.1-402.1,402.1-402.1
			s402.1,180.1,402.1,402.1S1180.8,5050.9,958.8,5050.9z"/>
		
			<rect x="487.1" y="4607.7" transform="matrix(0.6157 -0.788 0.788 0.6157 -3304.1292 2522.9741)" class="st12" width="894.8" height="82.3"/>
	</g>
	<path class="st13" d="M3362.1,3035.7c0,0,102.1-134,117.9-232.3l21.9,23.5c0,0-104.7,222.7-128.6,225.3
		C3349.6,3054.9,3362.1,3035.7,3362.1,3035.7z"/>
</g>
<g>
	<polyline class="st14" points="2664.8,4863.2 3162.8,4835 3205.2,5313.9 2664.8,5184.6 	"/>
	<path class="st14" d="M3470,3405.2c0,0,228-273,336.7-320.8c0,0,389.8,363.2,506.4,1063.1c116.6,699.9,172.3,1235.4,172.3,1235.4
		H2687.9C2687.9,5383,2886.7,4303.9,3470,3405.2z"/>
</g>
<g class="st0">
	<path class="st15" d="M2932,4866c0,0,232.4-30,281.9-22.9c0,0,91.9-651.3,212.1-896.9c0,0-164.4,601-190.9,940.3l-21.5-24.1
		C3213.5,4862.2,3102.7,4853.9,2932,4866z"/>
	<path class="st15" d="M2856.9,5223.9c0,0,869.6,498.7,1003.9-878.3C3860.8,4345.6,3850.1,5722.3,2856.9,5223.9z"/>
</g>
</svg>
