<?xml version="1.0" encoding="utf-8"?>
<!-- Generator: Adobe Illustrator 25.0.0, SVG Export Plug-In . SVG Version: 6.00 Build 0)  -->
<svg version="1.1" id="Ebene_1" xmlns="http://www.w3.org/2000/svg" xmlns:xlink="http://www.w3.org/1999/xlink" x="0px" y="0px"
	 viewBox="0 0 4500 5400" style="enable-background:new 0 0 4500 5400;" xml:space="preserve">
<style type="text/css">
	.st0{opacity:0.9;}
	.st1{fill:#B27761;}
	.st2{fill:#432C22;}
	.st3{fill:#D9DAE0;}
	.st4{fill:none;stroke:#432C22;stroke-width:19.9988;stroke-miterlimit:9.9994;}
	.st5{fill:#05314C;}
	.st6{fill:#058498;}
	.st7{fill:#D8D9DD;}
	.st8{fill:#B3765B;}
	.st9{fill:none;stroke:#432C22;stroke-width:16;stroke-miterlimit:10;}
	.st10{fill:#0E4862;}
	.st11{fill:#9DB4B7;}
	.st12{fill:#6C8E93;}
	.st13{opacity:0.9;fill:#D9DAE0;}
	.st14{fill:#F8F9FA;}
	.st15{fill:#68A2AA;}
</style>
<g class="st0">
	<g class="st0">
		<path class="st1" d="M3263.7,1939l253.2,385.8l332.5-256.6l-331.2-387.6l-17.3-159l-338-14.6l-375.1,23.9
			c0,0-27.8,134.8,95.9,320.3C3007.5,2036.6,3263.7,1939,3263.7,1939z"/>
		<path class="st2" d="M2897.9,1810.4c0,0,31.2,6,37.8-25.2C2935.6,1785.2,2958.9,1871.4,2897.9,1810.4z"/>
		<path class="st2" d="M2970.4,1770.9l318-167.3c0,0,89.2-26-306.4,188.5"/>
		<path class="st3" d="M2877.8,1842c0,0-33,149.9,10.8,203c43.7,53.1,277.1,225.3,389.8,46.4l109.3-144.5L3247.7,1705
			C3247.8,1705,2939.3,1995,2877.8,1842z"/>
		<path class="st3" d="M3247.8,1729.6c0,0,68.9-129.2,82.8-140.5l-22.5-8.6l-72.3,145.1L3247.8,1729.6z"/>
		
			<ellipse transform="matrix(0.8424 -0.5388 0.5388 0.8424 -510.4526 1858.255)" class="st4" cx="2921.8" cy="1801.8" rx="57.3" ry="101.1"/>
		<g>
			<path class="st5" d="M1469.2,1771.7c0,0,84.8-77.1,0-186.4c-84.8-109.2-250.3-184.4-457.3-178.8
				c-207.1,5.7-329.4,227.8-329.4,227.8s-150.6,280.4,32,466.8c0,0,42.6,37.6,7.5,69.3c-35.1,31.7-333.6,40.4-333.6,40.4
				s-170.4,31.5-237.4,121.9c-66.9,90.3-271.9,446.7,79.5,542.9c351.4,96.2,480.2-49.3,480.2-49.3l519.5-624l224.6-355.9
				L1469.2,1771.7z"/>
			<path class="st6" d="M729.9,2139.3l-13.4,28.4c0,0,97,107.9,251.8,68.6l11.7-65.3C980,2171.1,878.8,2219.6,729.9,2139.3z"/>
			<g>
				<rect x="1291.9" y="3575" class="st7" width="413.6" height="745.9"/>
				<path class="st7" d="M102.4,3318.7l265.1,13.3L296,4326.2l1179.8-5.3l129.9-978.2l172.3-5.3c0,0,68.9-347.3-100.8-448
					c-169.7-100.7-524.9-182.9-524.9-182.9s-509-90.1-938.6,196.2C213.8,2902.5,89.1,3011.2,102.4,3318.7z"/>
				<rect x="123.6" y="3318.7" class="st8" width="249.2" height="1002.2"/>
				<rect x="1515.5" y="3318.7" class="st8" width="249.2" height="1002.2"/>
			</g>
			<path class="st8" d="M961.9,2166.9l-208.6,533.8c0,0-10.6,351.7,365.9,196.2c0,0,102.5-49.5,100.8-205
				c-1.7-155.5,17.7-252.7,17.7-252.7s10.6-47.7,152-24.8c141.5,22.9,136.1-30,136.1-30l3.6-70.7c0,0,11.1-29.6,29.6-29.6
				c18.6,0-2-27.8-2-27.8l-14.6-30.4l51.7-17.9c0,0-9.9-53,3.3-72.3c0,0,9.2-37.1,36.4-39.1s56.3-31.2-13.9-78.9
				c-70.2-47.7-143.1-129.9-128.6-205.4l-2.3-71.3c0,0-313.1,4.6-408.6,284.7c0,0-92.8-147.6-147.6-25.6c0,0-21.2,55.7,29.1,131.6
				C961.9,2131.6,973.4,2135.1,961.9,2166.9z"/>
			<path class="st2" d="M1377.9,1940.1c2.3,0,48.7,9.9,71.6-22.2c0,0,20.9,44.5-20.9,63.6S1377.9,1940.1,1377.9,1940.1z"/>
			<path class="st2" d="M1511.7,2225.4c0,0,46.3-29.1,87.5-22.1c0,0,26.1,29.1-47.1,30.8c0,0,28.9,37.7,17.9,48.1
				C1559,2292.8,1543.7,2289.4,1511.7,2225.4z"/>
			<path class="st9" d="M1302.1,1869.5c0,0,51.7-77.7,142.7-58.4"/>
			<path class="st6" d="M3006.6,3307.5c-5.3-0.9-296.9-28.3-332.3-94.6c0,0-74.2-78.7-100.8-182.9
				c-26.5-104.2-192.6-53.9-192.6-53.9l2.2,51.7c0,0,48.6,16.3,71.2,7.5c0,0-39.8,145.3,20.3,195.8
				c60.1,50.3,90.1,109.6,181.2,111.3l329.7,223.2L3006.6,3307.5z"/>
			<path class="st10" d="M2465.1,3167.1c0,0-161.7,23.9-192.2-24.6l-10.6-32.5l-76.5-2.6c0,0-75-26.3,16.8-33.6h80.7l1.2-19.9
				l-98.8-1.2c0,0-76.2-19.6,0-29.8l139.5-5l10.3-19.6h-136.9c0,0-65.3-13.6,0.6-25.2l162.7-9.4l4,47.8h65.3l44.5,18.3
				L2465.1,3167.1z"/>
			<g>
				
					<rect x="2071.3" y="3241.4" transform="matrix(0.6017 -0.7987 0.7987 0.6017 -1721.8158 3038.4126)" class="st6" width="228.7" height="8.4"/>
				<g>
					
						<rect x="2375.8" y="2858.6" transform="matrix(0.6017 -0.7987 0.7987 0.6017 -1305.3365 3115.5576)" class="st6" width="190.8" height="15.9"/>
					
						<rect x="2517.1" y="2750.9" transform="matrix(0.6017 -0.7987 0.7987 0.6017 -1223.7223 3130.6516)" class="st6" width="20.2" height="82.8"/>
					
						<rect x="2180.1" y="3010.4" transform="matrix(0.6017 -0.7987 0.7987 0.6017 -1503.3391 3078.896)" class="st3" width="310.7" height="72.9"/>
				</g>
			</g>
			<path class="st6" d="M2457.8,3095.7c0,0-80.9-44.7-101.6-71.6c-20.8-27-68.7-1.7-20.6,46c48,47.7,57.3,100.8,131.1,121.5
				C2540.4,3212.4,2457.8,3095.7,2457.8,3095.7z"/>
			<path class="st6" d="M2652.7,3788.1v321.4l-370.5-166.4c0,0-135,27.8-182.3-35.8c-47.3-63.6-125.5-78.3-187.4-35.3l-58.4,43.7
				c0,0-65.4,43.3-25.6-30c0,0,54.3-60.1,98.6-70.7c0,0-96.7,37.6-128.6,68c0,0-65.9,40.7-22.5-33.1c0,0,52.2-47.7,116.6-71.2
				l-119.3,42.8c0,0-84.3,27-20.3-38c0,0,94.1-68,190.4-78.7c96.3-10.6,207.5,51.3,296.3,89L2652.7,3788.1z"/>
			<path class="st6" d="M2805.9,1573.6l367,8.8c0,0,109.3,43.7,133.9,39.8c0,0,96.1-120.6,142.5-14.6c0,0,19.2,32.5,18.6,110
				c-0.6,77.5,217.4,84.1,217.4,84.1s300.4-40.9,132.6-334.2c-167.9-293.4-749.4-495.8-932.4-339.3
				C2702.6,1284.6,2635.8,1514.3,2805.9,1573.6z"/>
			<path class="st11" d="M1213.8,3595.2c-12.8-2.1-25.1,2.3-33.5,10.9l-28-4.8c2.4-39.9-6.5-80.6-27.9-116.9l22.8-16.8
				c11.4,3.9,24.5,2.2,34.8-5.5c17-12.5,20.5-36.3,8-53.3c-12.5-17-36.3-20.5-53.3-8c-10.5,7.7-15.7,19.7-15.4,31.7l-22.8,16.8
				c-26.7-29.1-60.2-49.1-96.3-59.2l4.8-28c10.9-5.2,19.2-15.3,21.3-28.1c3.6-20.7-10.5-40.4-31.2-43.8
				c-20.7-3.6-40.4,10.5-43.8,31.2c-2.1,12.8,2.3,25.1,10.9,33.5l-4.8,28c-39.9-2.4-80.6,6.5-116.9,27.9l-16.8-22.8
				c3.9-11.4,2.2-24.5-5.5-34.8c-12.5-17-36.3-20.5-53.3-8c-17,12.5-20.5,36.3-8,53.3c7.7,10.5,19.7,15.7,31.7,15.4l16.8,22.8
				c-29.1,26.7-49.1,60.2-59.2,96.3l-28-4.8c-5.2-10.9-15.3-19.2-28.1-21.3c-20.7-3.6-40.4,10.5-43.8,31.2
				c-3.6,20.7,10.5,40.4,31.2,43.8c12.8,2.1,25.1-2.3,33.5-10.9l28,4.8c-2.4,39.9,6.5,80.6,27.9,116.9l-22.8,16.8
				c-11.4-3.9-24.5-2.2-34.8,5.5c-17,12.5-20.5,36.3-8,53.3c12.5,16.9,36.3,20.5,53.3,8c10.5-7.7,15.7-19.7,15.4-31.7l22.8-16.8
				c26.7,29.1,60.2,49.1,96.3,59.2l-4.8,28c-10.9,5.2-19.2,15.3-21.3,28.1c-3.6,20.7,10.5,40.4,31.2,43.8
				c20.7,3.6,40.4-10.5,43.8-31.2c2.1-12.8-2.3-25.1-10.9-33.5l4.8-28c39.9,2.4,80.6-6.5,116.9-27.9l16.8,22.8
				c-3.9,11.4-2.2,24.5,5.5,34.8c12.5,17,36.3,20.5,53.3,8s20.5-36.3,8-53.3c-7.7-10.5-19.7-15.7-31.7-15.4l-16.8-22.8
				c29.1-26.7,49.1-60.2,59.2-96.3l28,4.8c5.2,10.9,15.3,19.2,28.1,21.3c20.7,3.6,40.4-10.5,43.8-31.2
				C1248.5,3618.3,1234.5,3598.6,1213.8,3595.2z M875.8,3608.1c-17,12.5-40.8,8.9-53.3-8c-12.5-17-8.9-40.8,8-53.3
				c17-12.5,40.8-8.9,53.3,8C896.3,3571.8,892.8,3595.6,875.8,3608.1z M949,3694.3c-9.6,7.1-23.2,5.1-30.4-4.6
				c-7.1-9.6-5.1-23.2,4.6-30.4c9.6-7.1,23.2-5.1,30.4,4.6C960.8,3673.5,958.8,3687.2,949,3694.3z M998.3,3599.9
				c-40.6-4.9-69.6-41.6-64.8-82.2c4.9-40.6,41.6-69.6,82.2-64.8c40.6,4.9,69.6,41.6,64.8,82.2
				C1075.8,3575.7,1038.9,3604.7,998.3,3599.9z"/>
			<path class="st12" d="M946.6,3103.9c-260.1,0-471.1,210.9-471.1,471.1s210.9,471.1,471.1,471.1s471.1-210.9,471.1-471.1
				C1417.7,3314.9,1206.8,3103.9,946.6,3103.9z M946.6,3977.1c-222.1,0-402.1-180.1-402.1-402.1s180.1-402.1,402.1-402.1
				s402.1,180.1,402.1,402.1S1168.7,3977.1,946.6,3977.1z"/>
			
				<rect x="474.9" y="3533.9" transform="matrix(0.6157 -0.788 0.788 0.6157 -2462.6572 2100.6997)" class="st12" width="894.8" height="82.3"/>
		</g>
	</g>
	<path class="st13" d="M3350,1961.9c0,0,102.1-134,117.9-232.3l21.9,23.5c0,0-104.7,222.7-128.6,225.3
		C3337.4,1981.1,3350,1961.9,3350,1961.9z"/>
</g>
<g>
	<polyline class="st14" points="2644.6,3788.1 3142.5,3759.9 3184.9,4238.9 2644.6,4109.6 	"/>
	<path class="st14" d="M3449.7,2330.1c0,0,228-273,336.7-320.8c0,0,389.8,363.2,506.4,1063.1c116.6,699.9,172.3,1235.4,172.3,1235.4
		H2667.6C2667.6,4307.9,2866.4,3228.9,3449.7,2330.1z"/>
</g>
<g class="st0">
	<path class="st15" d="M2919.8,3792.1c0,0,232.4-30,281.9-22.9c0,0,91.9-651.3,212.1-896.9c0,0-164.4,601-190.9,940.3l-21.5-24.1
		C3201.3,3788.4,3090.5,3780.1,2919.8,3792.1z"/>
	<path class="st15" d="M2844.7,4150.1c0,0,869.6,498.7,1003.9-878.3C3848.6,3271.8,3837.9,4648.5,2844.7,4150.1z"/>
</g>
</svg>
