<svg width="4400" height="4400" xmlns="http://www.w3.org/2000/svg" xml:space="preserve" version="1.1">

 <g>
  <title>Layer 1</title>
  <ellipse id="svg_1" fill="#53968E" ry="3178.67" rx="3232" cy="7360.73" cx="-3801.87" class="st0"/>
  <path id="svg_2" fill="#058498" d="m-2931.52,1866.84c-34.36,-6.61 -67.96,6.14 -89.56,30.6l-246.03,-47.45c21.08,-120.5 19.23,-239.85 -2.14,-353.63l196.07,-46.16c12.04,13.8 30.79,20.99 49.97,16.89c28.17,-6 46.16,-33.69 40.16,-61.87c-6,-28.17 -33.69,-46.16 -61.87,-40.16c-19.99,4.23 -34.6,19.46 -39.45,37.98l-195.02,45.92c-19.75,-82.52 -49.83,-161.71 -89.32,-235.71l195.02,-131.92c7.14,3.38 14.7,6.04 22.84,7.57c51.78,9.99 101.79,-23.89 111.79,-75.62c9.99,-51.78 -23.89,-101.84 -75.62,-111.79c-51.78,-9.99 -101.84,23.89 -111.79,75.62c-1.57,8.09 -1.95,16.13 -1.43,23.98l-190.5,128.87c-61.29,-91.99 -137.91,-173.7 -226.95,-241.18l95.51,-147.14c5.09,0.48 10.28,0.43 15.56,-0.67c28.17,-6 46.16,-33.69 40.16,-61.87c-6,-28.17 -33.69,-46.16 -61.87,-40.16c-28.17,6 -46.16,33.69 -40.16,61.87c1.14,5.24 3.19,9.99 5.71,14.47l-94.23,145.1c-83.33,-56.92 -176.46,-101.79 -277.4,-131.53l33.36,-173.03c30.74,-10.99 55.11,-37.36 61.72,-71.76c9.99,-51.78 -23.89,-101.84 -75.62,-111.79c-51.73,-9.95 -101.84,23.89 -111.79,75.62c-6.61,34.41 6.14,67.96 30.6,89.56l-32.5,168.42c-137.48,-26.41 -273.68,-22.94 -402.13,5.76l-36.17,-122.06c12.37,-12.09 18.56,-29.93 14.71,-48.11c-6,-28.17 -33.69,-46.16 -61.87,-40.16c-28.17,6 -46.16,33.69 -40.16,61.87c4.47,21.03 21.08,36.36 40.93,40.31l35.5,119.83c-85.37,23.51 -166.85,58.3 -242.32,102.93l-92.13,-136.15c3.38,-7.14 6.04,-14.71 7.57,-22.84c9.99,-51.78 -23.89,-101.84 -75.62,-111.79c-51.78,-9.99 -101.79,23.89 -111.79,75.62s23.89,101.84 75.62,111.79c8.09,1.57 16.13,1.95 23.98,1.43l91.47,135.2c-84.95,62.1 -159.99,137.77 -221.86,224.48l-89.8,-58.3c0.48,-5.09 0.43,-10.28 -0.67,-15.51c-6,-28.17 -33.69,-46.16 -61.87,-40.16c-28.17,6 -46.16,33.69 -40.16,61.87c6,28.17 33.69,46.16 61.87,40.16c5.28,-1.14 9.99,-3.19 14.47,-5.71l89.09,57.82c-63.15,98.37 -109.88,209.49 -135.39,330.36l-152.28,-29.36c-10.99,-30.74 -37.36,-55.11 -71.76,-61.72c-51.78,-9.99 -101.79,23.89 -111.79,75.62c-9.99,51.78 23.89,101.79 75.62,111.79c34.41,6.61 67.96,-6.14 89.56,-30.6l155.23,29.93c-12.75,113.97 -5.23,226.24 19.51,332.98l-102.7,24.18c-12.04,-13.8 -30.84,-20.99 -49.97,-16.89c-28.17,6 -46.16,33.69 -40.16,61.87c6,28.17 33.69,46.16 61.87,40.16c19.99,-4.23 34.6,-19.46 39.4,-37.98l103.65,-24.41c29.6,104.12 75.81,202.35 136.53,290.72l-170.8,115.55c-7.14,-3.38 -14.71,-6.04 -22.84,-7.57c-51.78,-9.99 -101.79,23.89 -111.79,75.62c-9.99,51.78 23.89,101.79 75.62,111.79c51.78,9.99 101.79,-23.89 111.79,-75.62c1.57,-8.09 1.95,-16.13 1.43,-24.03l175.32,-118.59c67.15,79.81 147.1,149.19 237.37,204.97l-73.76,113.59c-5.09,-0.48 -10.28,-0.43 -15.51,0.67c-28.17,6 -46.16,33.69 -40.17,61.87s33.69,46.16 61.87,40.16c28.17,-6 46.16,-33.69 40.16,-61.87c-1.09,-5.24 -3.19,-9.99 -5.71,-14.47l74.95,-115.45c88.47,48.83 185.88,84.99 290.48,105.22l-32.5,168.42c-30.74,10.99 -55.11,37.36 -61.72,71.76c-9.99,51.78 23.89,101.84 75.62,111.79c51.78,9.99 101.79,-23.89 111.79,-75.62c6.61,-34.41 -6.14,-67.96 -30.6,-89.56l33.36,-173.03c136.2,12.94 269.64,-2.86 393.84,-42.64l48.87,164.89c-12.37,12.09 -18.56,29.93 -14.7,48.11c6,28.17 33.69,46.16 61.87,40.16c28.17,-6 46.16,-33.69 40.16,-61.87c-4.47,-21.03 -21.08,-36.36 -40.93,-40.31l-49.44,-166.8c62.1,-23.32 121.59,-52.73 177.6,-87.71l153.76,227.28c-3.38,7.14 -6.04,14.71 -7.57,22.84c-9.99,51.78 23.89,101.79 75.62,111.79s101.79,-23.89 111.79,-75.62c9.99,-51.78 -23.89,-101.84 -75.62,-111.79c-8.09,-1.57 -16.13,-1.95 -23.98,-1.43l-154.43,-228.24c86.94,-66.86 162.9,-148.29 224.05,-241.37l162.75,105.69c-0.48,5.09 -0.43,10.28 0.67,15.56c6,28.17 33.69,46.16 61.87,40.16c28.17,-6 46.16,-33.69 40.16,-61.87c-6,-28.17 -33.69,-46.16 -61.87,-40.16c-5.28,1.14 -9.99,3.19 -14.47,5.71l-163.51,-106.17c43.12,-73.24 77.47,-152.9 101.03,-238.09l248.98,48.02c10.99,30.74 37.36,55.11 71.76,61.72c51.78,9.99 101.84,-23.89 111.79,-75.62c10,-51.75 -23.84,-101.81 -75.61,-111.8z" class="st1"/>
  <g id="svg_3">
   <rect id="svg_4" fill="#058498" height="2074.67" width="170.67" class="st1" transform="matrix(-0.7086 0.7056 -0.7056 -0.7086 14306.0586 -5514.752)" y="-840.92" x="8206.33"/>
   <circle id="svg_5" fill="#058498" r="149.33" cy="931.51" cx="9023.58" class="st1"/>
   <circle id="svg_6" fill="#058498" r="149.33" cy="-538.68" cx="7559.76" class="st1"/>
  </g>
  <circle id="svg_7" fill="#058498" r="1072.35" cy="3910.75" cx="-3702.43" class="st1"/>
  <g id="svg_8">
   <path id="svg_9" fill="#4D5855" d="m-2140.42,2167.67c-66.01,62.03 -93.38,149.76 -81.19,233.08l-144.72,135.99c-209.31,-180.6 -459.15,-291.53 -718.3,-331.85l9.77,-198.4c71.34,-44.72 120.42,-122.42 124.87,-212.89c7.24,-147.05 -106.1,-272.13 -253.15,-279.37c-147.05,-7.24 -272.13,106.1 -279.37,253.15c-4.46,90.48 36.75,172.62 103.35,224.13l-9.77,198.43c-279.08,15.67 -554.93,112.1 -789.7,290.47l-135.99,-144.72c17.33,-82.4 -4.53,-171.66 -66.56,-237.67c-100.82,-107.29 -269.53,-112.54 -376.82,-11.71c-107.29,100.82 -112.54,269.53 -11.71,376.82c62.03,66.01 149.76,93.38 233.08,81.19l135.99,144.72c-180.6,209.31 -291.53,459.15 -331.85,718.3l-198.4,-9.77c-44.72,-71.34 -122.42,-120.42 -212.89,-124.87c-147.05,-7.24 -272.13,106.1 -279.37,253.15s106.1,272.13 253.15,279.37c90.48,4.46 172.62,-36.75 224.13,-103.35l198.43,9.77c15.67,279.08 112.1,554.93 290.47,789.7l-144.72,135.99c-82.4,-17.33 -171.66,4.53 -237.67,66.56c-107.29,100.82 -112.54,269.53 -11.71,376.82c100.82,107.29 269.53,112.54 376.82,11.71c66.01,-62.03 93.38,-149.76 81.19,-233.08l144.72,-135.99c209.31,180.6 459.15,291.53 718.3,331.84l-9.77,198.4c-71.34,44.72 -120.42,122.42 -124.87,212.89c-7.24,147.05 106.1,272.13 253.15,279.37c147.05,7.24 272.13,-106.1 279.37,-253.15c4.46,-90.48 -36.75,-172.62 -103.35,-224.13l9.77,-198.43c279.07,-15.67 554.93,-112.1 789.69,-290.47l135.99,144.72c-17.34,82.4 4.53,171.66 66.56,237.67c100.82,107.29 269.53,112.54 376.82,11.71c107.29,-100.82 112.54,-269.53 11.71,-376.82c-62.03,-66.01 -149.76,-93.38 -233.08,-81.19l-135.99,-144.72c180.59,-209.31 291.53,-459.15 331.84,-718.3l198.4,9.77c44.72,71.34 122.42,120.42 212.89,124.87c147.05,7.24 272.13,-106.1 279.37,-253.15c7.24,-147.05 -106.1,-272.13 -253.15,-279.37c-90.48,-4.46 -172.62,36.75 -224.13,103.35l-198.43,-9.77c-15.67,-279.07 -112.1,-554.93 -290.47,-789.69l144.72,-135.99c82.4,17.33 171.66,-4.53 237.67,-66.56c107.29,-100.82 112.54,-269.53 11.71,-376.82c-100.8,-107.29 -269.51,-112.54 -376.8,-11.71z" class="st2"/>
   <path id="svg_10" fill="#636D6A" d="m-2309.77,4688.15c805.55,-716.35 472.75,-2129.85 -551.82,-2426.35c768.43,1159.7 -1301.92,1492.27 -1258.16,2560.66c547.47,380.54 1304.63,340.57 1809.98,-134.31z" class="st3"/>
   <circle id="svg_11" fill="#636D6A" r="266.58" cy="2789.59" cx="-3295.8" class="st3"/>
   <circle id="svg_12" fill="#636D6A" r="152.33" cy="3086.48" cx="-4001.03" class="st3"/>
  </g>
  <path id="svg_13" fill="#636D6A" d="m8039.75,4582.71c451.25,-401.28 264.82,-1193.08 -309.12,-1359.18c430.45,649.64 -729.3,835.93 -704.79,1434.42c306.69,213.17 730.82,190.78 1013.91,-75.24z" class="st3"/>
  <path id="svg_14" fill="#636D6A" d="m8189.95,6930.13c-87.26,-4.3 -166.49,35.44 -216.17,99.68l-191.39,-9.43c-15.11,-269.16 -108.11,-535.21 -280.15,-761.64l139.58,-131.16c79.47,16.72 165.56,-4.37 229.23,-64.2c103.48,-97.24 108.54,-259.96 11.3,-363.44c-97.24,-103.48 -259.96,-108.54 -363.44,-11.3c-63.67,59.83 -90.06,144.44 -78.31,224.8l-139.58,131.16c-201.88,-174.18 -442.84,-281.18 -692.78,-320.06l9.42,-191.35c68.81,-43.13 116.14,-118.07 120.44,-205.33c6.99,-141.83 -102.33,-262.46 -244.16,-269.45c-141.83,-6.98 -262.46,102.33 -269.45,244.16c-4.3,87.26 35.44,166.49 99.68,216.17l-9.43,191.38c-269.16,15.11 -535.22,108.11 -761.64,280.15l-131.16,-139.58c16.72,-79.47 -4.37,-165.56 -64.2,-229.23c-97.24,-103.48 -259.96,-108.54 -363.44,-11.3c-103.48,97.24 -108.54,259.96 -11.3,363.44c59.83,63.67 144.44,90.06 224.8,78.31l131.16,139.58c-174.18,201.88 -281.18,442.84 -320.06,692.78l-191.35,-9.42c-43.13,-68.81 -118.07,-116.14 -205.33,-120.44c-141.83,-6.98 -262.46,102.33 -269.45,244.16c-6.99,141.83 102.33,262.46 244.16,269.45c87.26,4.3 166.49,-35.44 216.17,-99.68l191.38,9.43c15.11,269.16 108.11,535.22 280.15,761.64l-139.58,131.16c-79.47,-16.72 -165.56,4.37 -229.23,64.2c-103.48,97.24 -108.54,259.96 -11.3,363.44c97.24,103.48 259.96,108.54 363.44,11.3c63.67,-59.83 90.06,-144.44 78.31,-224.8l139.58,-131.16c201.88,174.18 442.84,281.18 692.78,320.06l-9.42,191.35c-68.81,43.13 -116.14,118.07 -120.44,205.33c-6.98,141.83 102.33,262.46 244.16,269.45s262.47,-102.33 269.45,-244.16c4.3,-87.26 -35.44,-166.49 -99.68,-216.17l9.42,-191.38c269.16,-15.11 535.22,-108.12 761.64,-280.15l131.16,139.58c-16.72,79.47 4.37,165.56 64.2,229.23c97.24,103.48 259.96,108.54 363.44,11.3c103.48,-97.24 108.54,-259.96 11.3,-363.44c-59.83,-63.67 -144.44,-90.06 -224.8,-78.31l-131.16,-139.58c174.18,-201.88 281.18,-442.84 320.06,-692.78l191.35,9.42c43.13,68.81 118.07,116.14 205.33,120.44c141.83,6.99 262.47,-102.33 269.45,-244.16c7,-141.82 -102.31,-262.46 -244.14,-269.45zm-2255.2,356.32c-103.48,97.24 -266.2,92.18 -363.44,-11.3c-97.24,-103.48 -92.18,-266.2 11.3,-363.44c103.48,-97.24 266.2,-92.18 363.44,11.3c97.24,103.48 92.18,266.2 -11.3,363.44zm559.3,519.14c-59.13,55.57 -152.11,52.68 -207.68,-6.46c-55.57,-59.13 -52.68,-152.11 6.46,-207.68c59.13,-55.57 152.11,-52.68 207.68,6.45c55.57,59.14 52.68,152.12 -6.46,207.69zm255.33,-672.04c-276,0 -499.74,-223.74 -499.74,-499.74c0,-276 223.74,-499.74 499.74,-499.74c276,0 499.74,223.74 499.74,499.74c0,275.99 -223.74,499.74 -499.74,499.74z" class="st3"/>
  <g id="svg_15">
   <path fill="#505050" id="svg_16" stroke-miterlimit="10" d="m3710.85742,1332.79046l-543.56,-576.5c-86.29,-91.52 -230.45,-95.76 -321.97,-9.47l-2094.42,1974.75c-91.52,86.3 -95.76,230.45 -9.47,321.97l543.56,576.5c86.3,91.52 230.45,95.76 321.97,9.47l2094.43,-1974.75c91.52,-86.3 95.76,-230.45 9.46,-321.97zm-192.37,370.58l-1909,1799.93c-91.52,86.3 -235.68,82.06 -321.97,-9.47l-419.94,-445.39c-86.3,-91.52 -82.06,-235.68 9.47,-321.97l1909,-1799.93c91.52,-86.3 235.68,-82.06 321.97,9.47l419.94,445.39c86.3,91.52 82.06,235.68 -9.47,321.97z" class="st4"/>
   <path fill="#505050" id="svg_17" stroke-miterlimit="10" d="m2463.44742,485.03046l1466.85,1555.73c28.29,30 75.55,31.39 105.55,3.1l138.82,-130.89c30,-28.29 31.39,-75.55 3.1,-105.55l-1466.84,-1555.73c-28.29,-30 -75.55,-31.39 -105.55,-3.1l-138.82,130.89c-30.01,28.29 -31.4,75.54 -3.11,105.55z" class="st4"/>
   <rect transform="matrix(-0.686 -0.7276 0.7276 -0.686 5428.85 4451.44)" fill="#505050" id="svg_18" stroke-miterlimit="10" height="583.08" width="215.07" class="st4" y="853.32487" x="3736.29509"/>
   <path fill="#505050" id="svg_19" stroke-miterlimit="10" d="m3338.15742,357.13046l781.2,828.54c24.75,26.25 66.1,27.47 92.35,2.72l121.47,-114.53c26.25,-24.75 27.47,-66.1 2.72,-92.36l-781.2,-828.54c-24.75,-26.25 -66.1,-27.47 -92.36,-2.72l-121.47,114.53c-26.24,24.76 -27.46,66.11 -2.71,92.36z" class="st4"/>
   <rect transform="matrix(-0.686 -0.7276 0.7276 -0.686 -939.929 6751.89)" fill="#505050" id="svg_20" stroke-miterlimit="10" height="218.66" width="467.68" class="st4" y="3559.96487" x="921.97509"/>
   <path fill="#505050" id="svg_21" stroke-miterlimit="10" d="m2091.69742,1536.48046l322.77,342.32c12.12,12.86 32.38,13.45 45.24,1.33l59.5,-56.1c12.86,-12.12 13.45,-32.38 1.33,-45.24l-322.77,-342.32c-12.12,-12.86 -32.38,-13.45 -45.24,-1.33l-59.5,56.1c-12.85,12.13 -13.45,32.38 -1.33,45.24z" class="st4"/>
   <path fill="#505050" id="svg_22" stroke-miterlimit="10" d="m1741.66742,1894.34046l178.32,189.13c12.12,12.86 32.38,13.45 45.24,1.33l59.5,-56.1c12.86,-12.12 13.45,-32.38 1.33,-45.24l-178.32,-189.13c-12.12,-12.86 -32.38,-13.45 -45.24,-1.33l-59.5,56.1c-12.86,12.13 -13.45,32.38 -1.33,45.24z" class="st4"/>
   <path fill="#505050" id="svg_23" stroke-miterlimit="10" d="m1013.81742,2580.60046l178.32,189.13c12.12,12.86 32.38,13.45 45.24,1.33l59.5,-56.1c12.86,-12.12 13.45,-32.38 1.33,-45.24l-178.32,-189.13c-12.12,-12.86 -32.38,-13.45 -45.24,-1.33l-59.5,56.1c-12.86,12.13 -13.45,32.39 -1.33,45.24z" class="st4"/>
   <path fill="#505050" id="svg_24" stroke-miterlimit="10" d="m2469.51742,1208.08046l178.32,189.13c12.12,12.86 32.38,13.45 45.24,1.33l59.5,-56.1c12.86,-12.12 13.45,-32.38 1.33,-45.24l-178.32,-189.13c-12.12,-12.86 -32.38,-13.45 -45.24,-1.33l-59.5,56.1c-12.86,12.13 -13.46,32.38 -1.33,45.24z" class="st4"/>
   <path fill="#505050" id="svg_25" stroke-miterlimit="10" d="m1361.12742,2227.11046l328.69,336.64c12.35,12.65 32.61,12.89 45.25,0.54l58.51,-57.13c12.65,-12.35 12.89,-32.61 0.54,-45.25l-328.69,-336.64c-12.35,-12.65 -32.61,-12.89 -45.25,-0.54l-58.51,57.13c-12.65,12.35 -12.89,32.61 -0.54,45.25z" class="st4"/>
   <path fill="#505050" id="svg_26" stroke-miterlimit="10" d="m1065.87742,3272.14046l0,0c-25.31,-26.85 -67.6,-28.09 -94.45,-2.78l-894.49,843.39l-30.65,212.54l1016.8,-958.71c26.85,-25.31 28.1,-67.6 2.79,-94.44z" class="st4"/>
  </g>
 </g>
</svg>