<?xml version="1.0" encoding="utf-8"?>
<!-- Generator: Adobe Illustrator 25.0.0, SVG Export Plug-In . SVG Version: 6.00 Build 0)  -->
<svg version="1.1" id="Ebene_1" xmlns="http://www.w3.org/2000/svg" xmlns:xlink="http://www.w3.org/1999/xlink" x="0px" y="0px"
	 viewBox="0 0 4500 5400" style="enable-background:new 0 0 4500 5400;" xml:space="preserve">
<style type="text/css">
	.st0{fill:#53968E;}
	.st1{fill:#058498;}
	.st2{fill:#4D5855;}
	.st3{fill:#636D6A;}
</style>
<ellipse class="st0" cx="-3801.87" cy="7360.73" rx="3232" ry="3178.67"/>
<path class="st1" d="M-2931.52,1866.84c-34.36-6.61-67.96,6.14-89.56,30.6l-246.03-47.45c21.08-120.5,19.23-239.85-2.14-353.63
	l196.07-46.16c12.04,13.8,30.79,20.99,49.97,16.89c28.17-6,46.16-33.69,40.16-61.87c-6-28.17-33.69-46.16-61.87-40.16
	c-19.99,4.23-34.6,19.46-39.45,37.98l-195.02,45.92c-19.75-82.52-49.83-161.71-89.32-235.71l195.02-131.92
	c7.14,3.38,14.7,6.04,22.84,7.57c51.78,9.99,101.79-23.89,111.79-75.62c9.99-51.78-23.89-101.84-75.62-111.79
	c-51.78-9.99-101.84,23.89-111.79,75.62c-1.57,8.09-1.95,16.13-1.43,23.98l-190.5,128.87c-61.29-91.99-137.91-173.7-226.95-241.18
	l95.51-147.14c5.09,0.48,10.28,0.43,15.56-0.67c28.17-6,46.16-33.69,40.16-61.87c-6-28.17-33.69-46.16-61.87-40.16
	c-28.17,6-46.16,33.69-40.16,61.87c1.14,5.24,3.19,9.99,5.71,14.47l-94.23,145.1c-83.33-56.92-176.46-101.79-277.4-131.53
	l33.36-173.03c30.74-10.99,55.11-37.36,61.72-71.76c9.99-51.78-23.89-101.84-75.62-111.79c-51.73-9.95-101.84,23.89-111.79,75.62
	c-6.61,34.41,6.14,67.96,30.6,89.56l-32.5,168.42c-137.48-26.41-273.68-22.94-402.13,5.76l-36.17-122.06
	c12.37-12.09,18.56-29.93,14.71-48.11c-6-28.17-33.69-46.16-61.87-40.16c-28.17,6-46.16,33.69-40.16,61.87
	c4.47,21.03,21.08,36.36,40.93,40.31l35.5,119.83c-85.37,23.51-166.85,58.3-242.32,102.93l-92.13-136.15
	c3.38-7.14,6.04-14.71,7.57-22.84c9.99-51.78-23.89-101.84-75.62-111.79c-51.78-9.99-101.79,23.89-111.79,75.62
	s23.89,101.84,75.62,111.79c8.09,1.57,16.13,1.95,23.98,1.43l91.47,135.2c-84.95,62.1-159.99,137.77-221.86,224.48l-89.8-58.3
	c0.48-5.09,0.43-10.28-0.67-15.51c-6-28.17-33.69-46.16-61.87-40.16c-28.17,6-46.16,33.69-40.16,61.87
	c6,28.17,33.69,46.16,61.87,40.16c5.28-1.14,9.99-3.19,14.47-5.71l89.09,57.82c-63.15,98.37-109.88,209.49-135.39,330.36
	l-152.28-29.36c-10.99-30.74-37.36-55.11-71.76-61.72c-51.78-9.99-101.79,23.89-111.79,75.62c-9.99,51.78,23.89,101.79,75.62,111.79
	c34.41,6.61,67.96-6.14,89.56-30.6l155.23,29.93c-12.75,113.97-5.23,226.24,19.51,332.98l-102.7,24.18
	c-12.04-13.8-30.84-20.99-49.97-16.89c-28.17,6-46.16,33.69-40.16,61.87c6,28.17,33.69,46.16,61.87,40.16
	c19.99-4.23,34.6-19.46,39.4-37.98l103.65-24.41c29.6,104.12,75.81,202.35,136.53,290.72l-170.8,115.55
	c-7.14-3.38-14.71-6.04-22.84-7.57c-51.78-9.99-101.79,23.89-111.79,75.62c-9.99,51.78,23.89,101.79,75.62,111.79
	c51.78,9.99,101.79-23.89,111.79-75.62c1.57-8.09,1.95-16.13,1.43-24.03l175.32-118.59c67.15,79.81,147.1,149.19,237.37,204.97
	l-73.76,113.59c-5.09-0.48-10.28-0.43-15.51,0.67c-28.17,6-46.16,33.69-40.17,61.87s33.69,46.16,61.87,40.16
	c28.17-6,46.16-33.69,40.16-61.87c-1.09-5.24-3.19-9.99-5.71-14.47l74.95-115.45c88.47,48.83,185.88,84.99,290.48,105.22
	l-32.5,168.42c-30.74,10.99-55.11,37.36-61.72,71.76c-9.99,51.78,23.89,101.84,75.62,111.79c51.78,9.99,101.79-23.89,111.79-75.62
	c6.61-34.41-6.14-67.96-30.6-89.56l33.36-173.03c136.2,12.94,269.64-2.86,393.84-42.64l48.87,164.89
	c-12.37,12.09-18.56,29.93-14.7,48.11c6,28.17,33.69,46.16,61.87,40.16c28.17-6,46.16-33.69,40.16-61.87
	c-4.47-21.03-21.08-36.36-40.93-40.31l-49.44-166.8c62.1-23.32,121.59-52.73,177.6-87.71l153.76,227.28
	c-3.38,7.14-6.04,14.71-7.57,22.84c-9.99,51.78,23.89,101.79,75.62,111.79s101.79-23.89,111.79-75.62
	c9.99-51.78-23.89-101.84-75.62-111.79c-8.09-1.57-16.13-1.95-23.98-1.43l-154.43-228.24c86.94-66.86,162.9-148.29,224.05-241.37
	l162.75,105.69c-0.48,5.09-0.43,10.28,0.67,15.56c6,28.17,33.69,46.16,61.87,40.16c28.17-6,46.16-33.69,40.16-61.87
	c-6-28.17-33.69-46.16-61.87-40.16c-5.28,1.14-9.99,3.19-14.47,5.71l-163.51-106.17c43.12-73.24,77.47-152.9,101.03-238.09
	l248.98,48.02c10.99,30.74,37.36,55.11,71.76,61.72c51.78,9.99,101.84-23.89,111.79-75.62
	C-2845.91,1926.89-2879.75,1876.83-2931.52,1866.84z"/>
<g>
	
		<rect x="8206.33" y="-840.92" transform="matrix(-0.7086 0.7056 -0.7056 -0.7086 14306.0586 -5514.752)" class="st1" width="170.67" height="2074.67"/>
	<circle class="st1" cx="9023.58" cy="931.51" r="149.33"/>
	<circle class="st1" cx="7559.76" cy="-538.68" r="149.33"/>
</g>
<circle class="st1" cx="-3702.43" cy="3910.75" r="1072.35"/>
<g>
	<path class="st2" d="M-1715.15,869.22c-36.98,34.75-52.31,83.89-45.48,130.56l-81.07,76.18
		c-117.25-101.16-257.2-163.31-402.37-185.89l5.47-111.14c39.96-25.05,67.45-68.58,69.95-119.26
		c4.06-82.37-59.43-152.44-141.81-156.5c-82.37-4.06-152.44,59.43-156.5,141.81c-2.5,50.68,20.58,96.7,57.89,125.55l-5.47,111.16
		c-156.33,8.78-310.86,62.79-442.37,162.71l-76.18-81.07c9.71-46.16-2.54-96.16-37.29-133.14c-56.48-60.1-150.99-63.04-211.09-6.56
		c-60.1,56.48-63.04,150.99-6.56,211.09c34.75,36.98,83.89,52.31,130.56,45.48l76.18,81.07
		c-101.17,117.25-163.31,257.2-185.89,402.37l-111.14-5.47c-25.05-39.96-68.58-67.45-119.26-69.95
		c-82.37-4.06-152.44,59.43-156.5,141.81s59.43,152.44,141.81,156.5c50.68,2.5,96.7-20.58,125.55-57.89l111.16,5.47
		c8.78,156.33,62.79,310.86,162.71,442.37l-81.07,76.18c-46.16-9.71-96.16,2.54-133.14,37.29c-60.1,56.48-63.04,150.99-6.56,211.09
		s150.99,63.04,211.09,6.56c36.98-34.75,52.31-83.89,45.48-130.56l81.07-76.18c117.25,101.17,257.2,163.31,402.37,185.89
		l-5.47,111.14c-39.96,25.05-67.45,68.58-69.95,119.26c-4.06,82.37,59.43,152.44,141.81,156.5c82.37,4.06,152.44-59.43,156.5-141.81
		c2.5-50.68-20.58-96.7-57.89-125.55l5.47-111.16c156.33-8.78,310.86-62.79,442.37-162.71l76.18,81.07
		c-9.71,46.16,2.54,96.16,37.29,133.14c56.48,60.1,150.99,63.04,211.09,6.56c60.1-56.48,63.04-150.99,6.56-211.09
		c-34.75-36.98-83.89-52.31-130.56-45.48l-76.18-81.07c101.16-117.25,163.31-257.2,185.89-402.37l111.14,5.47
		c25.05,39.96,68.58,67.45,119.26,69.95c82.37,4.06,152.44-59.43,156.5-141.81c4.06-82.37-59.43-152.44-141.81-156.5
		c-50.68-2.5-96.7,20.58-125.55,57.89l-111.16-5.47c-8.78-156.33-62.79-310.86-162.71-442.37l81.07-76.18
		c46.16,9.71,96.16-2.54,133.14-37.29c60.1-56.48,63.04-150.99,6.56-211.09C-1560.54,815.68-1655.04,812.74-1715.15,869.22z"/>
	<path class="st3" d="M-1810.02,2281.13c451.25-401.28,264.82-1193.09-309.12-1359.18c430.45,649.64-729.3,835.93-704.79,1434.42
		C-2517.24,2569.54-2093.1,2547.15-1810.02,2281.13z"/>
	<circle class="st3" cx="-2362.36" cy="1217.61" r="149.33"/>
	<circle class="st3" cx="-2757.42" cy="1383.92" r="85.33"/>
</g>
<path class="st3" d="M8039.75,4582.71c451.25-401.28,264.82-1193.08-309.12-1359.18c430.45,649.64-729.3,835.93-704.79,1434.42
	C7332.53,4871.12,7756.66,4848.73,8039.75,4582.71z"/>
<path class="st3" d="M4107.99,2471.47c-87.26-4.3-166.49,35.44-216.17,99.68l-191.39-9.43
	c-15.11-269.16-108.11-535.22-280.15-761.64l139.58-131.16c79.47,16.72,165.56-4.37,229.23-64.2
	c103.48-97.24,108.54-259.96,11.3-363.44c-97.24-103.48-259.96-108.54-363.44-11.3c-63.67,59.83-90.06,144.44-78.31,224.8
	l-139.58,131.16c-201.88-174.18-442.84-281.18-692.78-320.06l9.42-191.35c68.81-43.13,116.14-118.07,120.44-205.33
	c6.99-141.83-102.33-262.46-244.16-269.45c-141.83-6.98-262.46,102.33-269.45,244.16c-4.3,87.26,35.44,166.49,99.68,216.17
	l-9.43,191.38c-269.16,15.11-535.22,108.11-761.64,280.15l-131.16-139.58c16.72-79.47-4.37-165.56-64.2-229.23
	c-97.24-103.48-259.96-108.54-363.44-11.3c-103.48,97.24-108.54,259.96-11.3,363.44c59.83,63.67,144.44,90.06,224.8,78.31
	l131.16,139.58c-174.18,201.88-281.18,442.84-320.06,692.78l-191.35-9.42c-43.13-68.81-118.07-116.14-205.33-120.44
	c-141.83-6.98-262.46,102.33-269.45,244.16c-6.99,141.83,102.33,262.46,244.16,269.45c87.26,4.3,166.49-35.44,216.17-99.68
	l191.38,9.43c15.11,269.16,108.11,535.22,280.15,761.64l-139.58,131.16c-79.47-16.72-165.56,4.37-229.23,64.2
	c-103.48,97.24-108.54,259.96-11.3,363.44c97.24,103.48,259.96,108.54,363.44,11.3c63.67-59.83,90.06-144.44,78.31-224.8
	l139.58-131.16c201.88,174.18,442.84,281.18,692.78,320.06l-9.42,191.35c-68.81,43.13-116.14,118.07-120.44,205.33
	c-6.98,141.83,102.33,262.47,244.16,269.45c141.83,6.98,262.46-102.33,269.45-244.16c4.3-87.26-35.44-166.49-99.68-216.17
	l9.43-191.38c269.16-15.11,535.22-108.12,761.64-280.15l131.16,139.58c-16.72,79.47,4.37,165.56,64.2,229.23
	c97.24,103.48,259.96,108.54,363.44,11.3c103.48-97.24,108.54-259.96,11.3-363.44c-59.83-63.67-144.44-90.06-224.8-78.31
	l-131.16-139.58c174.18-201.88,281.18-442.84,320.06-692.78l191.35,9.42c43.13,68.81,118.07,116.14,205.33,120.44
	c141.83,6.99,262.47-102.33,269.45-244.16C4359.13,2599.09,4249.82,2478.45,4107.99,2471.47z M1852.79,2827.78
	c-103.48,97.24-266.2,92.18-363.44-11.3c-97.24-103.48-92.18-266.2,11.3-363.44c103.48-97.24,266.2-92.18,363.44,11.3
	C1961.33,2567.82,1956.27,2730.54,1852.79,2827.78z M2412.1,3346.92c-59.13,55.57-152.11,52.68-207.68-6.46
	c-55.57-59.13-52.68-152.11,6.45-207.68c59.13-55.57,152.11-52.68,207.68,6.46C2474.12,3198.37,2471.23,3291.35,2412.1,3346.92z
	 M2667.42,2674.88c-276,0-499.74-223.74-499.74-499.74s223.74-499.74,499.74-499.74c276,0,499.74,223.74,499.74,499.74
	S2943.42,2674.88,2667.42,2674.88z"/>
</svg>
