<svg width="4500" height="4500" xmlns="http://www.w3.org/2000/svg" xml:space="preserve" version="1.1">

 <g>
  <title>Layer 1</title>
  <rect id="svg_1" stroke-miterlimit="10" stroke="#000000" fill="#FFFFFF" height="2951.9" width="2347.9" class="st0" y="233.98493" x="1632.27009"/>
  <rect id="svg_2" stroke-miterlimit="10" stroke="#000000" fill="#666666" height="2121.8" width="2170.1" class="st1" y="1100.48493" x="1732.77009"/>
  <path id="svg_3" fill="#666666" d="m3864.67009,112.58493l-2175.9,0c-120.1,0 -217.5,97.4 -217.5,217.5l0,2826.9c0,120.1 97.4,217.5 217.5,217.5l2175.9,0c120.1,0 217.5,-97.4 217.5,-217.5l0,-2826.9c0,-120.1 -97.4,-217.5 -217.5,-217.5zm-1163.9,2979.4l-891.8,0l0,-782.8l891.8,0l0,782.8zm13.4,-922l-905.2,0l0,-794.6l905.2,0l0,794.6zm1030.3,922l-905.2,0l0,-794.6l905.2,0l0,794.6zm0,-922l-905.2,0l0,-794.6l905.2,0l0,794.6zm0,-1174.4l-1935.5,0l0,-693l1935.6,0l0,693l-0.1,0z" class="st2"/>
  <path id="svg_4" stroke-miterlimit="10" stroke="#000000" fill="#FFFFFF" d="m3647.67009,1724.58493l-272.7,0l0,-295.5c0,-36.6 -29.6,-66.2 -66.2,-66.2l-24,0c-36.6,0 -66.2,29.6 -66.2,66.2l0,295.5l-318.3,0c-36.6,0 -66.2,29.6 -66.2,66.2l0,24c0,36.6 29.6,66.2 66.2,66.2l318.3,0l0,295.5c0,36.6 29.6,66.2 66.2,66.2l24,0c36.6,0 66.2,-29.6 66.2,-66.2l0,-295.5l272.7,0c36.6,0 66.2,-29.6 66.2,-66.2l0,-24c0,-36.6 -29.7,-66.2 -66.2,-66.2z" class="st0"/>
  <path id="svg_5" stroke-miterlimit="10" stroke="#000000" fill="#666666" d="m2438.47009,2791.88493l-133.5,-136.9l148.3,-144.6c18.3,-17.9 18.7,-47.3 0.8,-65.6l-11.8,-12.1c-17.9,-18.3 -47.3,-18.7 -65.6,-0.8l-148.3,144.6l-155.7,-159.7c-17.9,-18.3 -47.3,-18.7 -65.6,-0.8l-12.1,11.8c-18.3,17.9 -18.7,47.3 -0.8,65.6l155.8,159.7l-148.3,144.6c-18.3,17.9 -18.7,47.3 -0.8,65.6l11.8,12.1c17.9,18.3 47.3,18.7 65.6,0.8l148.3,-144.6l133.4,136.8c17.9,18.3 47.3,18.7 65.6,0.8l12.1,-11.8c18.3,-17.8 18.7,-47.2 0.8,-65.5z" class="st1"/>
  <path id="svg_6" stroke-miterlimit="10" stroke="#000000" fill="#FFFFFF" d="m1922.57009,1859.08493l0,-73.3c0,-10 8.1,-18.2 18.2,-18.2l580.4,0c10,0 18.2,8.1 18.2,18.2l0,73.3c0,10 -8.1,18.2 -18.2,18.2l-580.5,0c-10,0 -18.1,-8.1 -18.1,-18.2z" class="st0"/>
  <path id="svg_7" stroke-miterlimit="10" stroke="#000000" fill="#FFFFFF" d="m1922.57009,1609.78493l0,-73.3c0,-10 8.1,-18.2 18.2,-18.2l580.4,0c10,0 18.2,8.1 18.2,18.2l0,73.3c0,10 -8.1,18.2 -18.2,18.2l-580.5,0c-10,0 -18.1,-8.1 -18.1,-18.2z" class="st0"/>
  <path id="svg_8" stroke-miterlimit="10" stroke="#000000" fill="#FFFFFF" d="m2899.17009,2861.88493l0,-113.6c0,-10 8.1,-18.2 18.2,-18.2l806.8,0c10,0 18.2,8.1 18.2,18.2l0,113.6c0,10 -8.1,18.2 -18.2,18.2l-806.8,0c-10.1,0 -18.2,-8.1 -18.2,-18.2z" class="st0"/>
  <rect id="svg_9" fill="#666666" height="855" width="2130.4" class="st2" y="233.98493" x="1732.77009"/>
  <path id="svg_10" fill="#FFFFFF" d="m3623.27009,1062.68493l-1693.1,0c-102,0 -184.6,-82.7 -184.6,-184.6l0,-363.5c0,-115.8 93.9,-209.6 209.6,-209.6l1668.1,0c102,0 184.6,82.7 184.6,184.6l0,388.5c0,101.9 -82.6,184.6 -184.6,184.6z" class="st3"/>
  <path id="svg_11" fill="#FFFFFF" d="m2862.27009,3161.88493l-704.1,392.1c-48.3,26.9 -109.1,9.5 -136,-38.7l-1261.6,-2265.1c-26.9,-48.3 -9.5,-109.1 38.7,-136l704.1,-392.2c48.3,-26.9 109.1,-9.5 136,38.7l1261.5,2265.1c27,48.3 9.7,109.2 -38.6,136.1z" class="st3"/>
  <g id="svg_12">
   <path id="svg_13" fill="#333333" d="m769.37009,1299.78493l1189.9,2179c52,95.2 171.3,130.3 266.6,78.3l599.8,-327.5c95.2,-52 130.3,-171.3 78.3,-266.6l-1189.9,-2179c-52,-95.2 -171.3,-130.3 -266.6,-78.3l-599.8,327.5c-95.3,52 -130.3,171.4 -78.3,266.6zm215.3,-177.8l463.4,-253c95.2,-52 214.6,-17 266.6,78.3l1084.6,1986.1c52,95.2 17,214.6 -78.3,266.6l-463.4,253c-95.2,52 -214.6,17 -266.6,-78.3l-1084.6,-1986.2c-52,-95.2 -17,-214.5 78.3,-266.5z" class="st4"/>
   <path id="svg_14" fill="#333333" d="m2110.97009,663.68493l-1646.3,899.1c-23.5,12.9 -53.1,4.2 -65.9,-19.4l-94,-172.2c-12.9,-23.5 -4.2,-53.1 19.4,-65.9l1646.3,-899.1c23.5,-12.9 53.1,-4.2 65.9,19.4l94,172.2c12.8,23.5 4.1,53.1 -19.4,65.9z" class="st4"/>
   <rect id="svg_15" fill="#333333" height="502.9" width="185.5" class="st4" transform="matrix(0.8777 -0.4793 0.4793 0.8777 -612.442 592.964)" y="614.49783" x="1319.32578"/>
   <path id="svg_16" fill="#333333" d="m1426.07009,326.08493l-886.3,484c-20.6,11.3 -46.4,3.7 -57.7,-16.9l-82.3,-150.7c-11.3,-20.6 -3.7,-46.4 16.9,-57.7l886.3,-484c20.6,-11.3 46.4,-3.7 57.7,16.9l82.3,150.7c11.3,20.6 3.7,46.4 -16.9,57.7z" class="st4"/>
   <rect id="svg_17" fill="#333333" height="188.6" width="403.4" class="st4" transform="matrix(0.8777 -0.4793 0.4793 0.8777 -1761.69 1667.35)" y="3559.99783" x="2740.32578"/>
   <path id="svg_18" fill="#333333" d="m2126.97009,1629.58493l-368,201c-10.1,5.5 -22.7,1.8 -28.2,-8.3l-40.3,-73.8c-5.5,-10.1 -1.8,-22.7 8.3,-28.2l368,-201c10.1,-5.5 22.7,-1.8 28.2,8.3l40.3,73.8c5.5,10.1 1.8,22.7 -8.3,28.2z" class="st4"/>
   <path id="svg_19" fill="#333333" d="m2318.37009,2016.58493l-208.7,114c-10.1,5.5 -22.7,1.8 -28.2,-8.3l-40.3,-73.8c-5.5,-10.1 -1.8,-22.7 8.3,-28.2l208.7,-114c10.1,-5.5 22.7,-1.8 28.2,8.3l40.3,73.8c5.5,10 1.8,22.7 -8.3,28.2z" class="st4"/>
   <path id="svg_20" fill="#333333" d="m2731.97009,2773.78493l-208.7,114c-10.1,5.5 -22.7,1.8 -28.2,-8.3l-40.3,-73.8c-5.5,-10.1 -1.8,-22.7 8.3,-28.2l208.7,-114c10.1,-5.5 22.7,-1.8 28.2,8.3l40.3,73.8c5.5,10.1 1.7,22.7 -8.3,28.2z" class="st4"/>
   <path id="svg_21" fill="#333333" d="m1904.87009,1259.38493l-208.7,114c-10.1,5.5 -22.7,1.8 -28.2,-8.3l-40.3,-73.8c-5.5,-10.1 -1.8,-22.7 8.3,-28.2l208.7,-114c10.1,-5.5 22.7,-1.8 28.2,8.3l40.3,73.8c5.5,10 1.8,22.7 -8.3,28.2z" class="st4"/>
   <path id="svg_22" fill="#333333" d="m2541.57009,2391.28493l-371.5,194.5c-10.2,5.3 -22.8,1.4 -28.1,-8.8l-39,-74.5c-5.3,-10.2 -1.4,-22.8 8.8,-28.1l371.5,-194.5c10.2,-5.3 22.8,-1.4 28.1,8.8l39,74.5c5.4,10.1 1.4,22.7 -8.8,28.1z" class="st4"/>
   <path id="svg_23" fill="#333333" d="m2498.57009,3330.28493l0,0c27.9,-15.3 62.9,-5 78.2,23l508.2,930.6l-31.7,182.5l-577.7,-1057.9c-15.2,-28 -5,-63 23,-78.2z" class="st4"/>
  </g>
 </g>
</svg>