<?xml version="1.0" encoding="utf-8"?>
<!-- Generator: Adobe Illustrator 25.0.0, SVG Export Plug-In . SVG Version: 6.00 Build 0)  -->
<svg version="1.1" id="Ebene_1" xmlns="http://www.w3.org/2000/svg" xmlns:xlink="http://www.w3.org/1999/xlink" x="0px" y="0px"
	 viewBox="0 0 4500 5400" style="enable-background:new 0 0 4500 5400;" xml:space="preserve">
<style type="text/css">
	.st0{fill:#53968E;}
	.st1{fill:#058498;}
	.st2{fill:#4D5855;}
	.st3{fill:#636D6A;}
</style>
<ellipse class="st0" cx="-3801.87" cy="7360.73" rx="3232" ry="3178.67"/>
<path class="st1" d="M-2931.52,1866.84c-34.36-6.61-67.96,6.14-89.56,30.6l-246.03-47.45c21.08-120.5,19.23-239.85-2.14-353.63
	l196.07-46.16c12.04,13.8,30.79,20.99,49.97,16.89c28.17-6,46.16-33.69,40.16-61.87c-6-28.17-33.69-46.16-61.87-40.16
	c-19.99,4.23-34.6,19.46-39.45,37.98l-195.02,45.92c-19.75-82.52-49.83-161.71-89.32-235.71l195.02-131.92
	c7.14,3.38,14.7,6.04,22.84,7.57c51.78,9.99,101.79-23.89,111.79-75.62c9.99-51.78-23.89-101.84-75.62-111.79
	c-51.78-9.99-101.84,23.89-111.79,75.62c-1.57,8.09-1.95,16.13-1.43,23.98l-190.5,128.87c-61.29-91.99-137.91-173.7-226.95-241.18
	l95.51-147.14c5.09,0.48,10.28,0.43,15.56-0.67c28.17-6,46.16-33.69,40.16-61.87c-6-28.17-33.69-46.16-61.87-40.16
	c-28.17,6-46.16,33.69-40.16,61.87c1.14,5.24,3.19,9.99,5.71,14.47l-94.23,145.1c-83.33-56.92-176.46-101.79-277.4-131.53
	l33.36-173.03c30.74-10.99,55.11-37.36,61.72-71.76c9.99-51.78-23.89-101.84-75.62-111.79c-51.73-9.95-101.84,23.89-111.79,75.62
	c-6.61,34.41,6.14,67.96,30.6,89.56l-32.5,168.42c-137.48-26.41-273.68-22.94-402.13,5.76l-36.17-122.06
	c12.37-12.09,18.56-29.93,14.71-48.11c-6-28.17-33.69-46.16-61.87-40.16c-28.17,6-46.16,33.69-40.16,61.87
	c4.47,21.03,21.08,36.36,40.93,40.31l35.5,119.83c-85.37,23.51-166.85,58.3-242.32,102.93l-92.13-136.15
	c3.38-7.14,6.04-14.71,7.57-22.84c9.99-51.78-23.89-101.84-75.62-111.79c-51.78-9.99-101.79,23.89-111.79,75.62
	s23.89,101.84,75.62,111.79c8.09,1.57,16.13,1.95,23.98,1.43l91.47,135.2c-84.95,62.1-159.99,137.77-221.86,224.48l-89.8-58.3
	c0.48-5.09,0.43-10.28-0.67-15.51c-6-28.17-33.69-46.16-61.87-40.16c-28.17,6-46.16,33.69-40.16,61.87
	c6,28.17,33.69,46.16,61.87,40.16c5.28-1.14,9.99-3.19,14.47-5.71l89.09,57.82c-63.15,98.37-109.88,209.49-135.39,330.36
	l-152.28-29.36c-10.99-30.74-37.36-55.11-71.76-61.72c-51.78-9.99-101.79,23.89-111.79,75.62c-9.99,51.78,23.89,101.79,75.62,111.79
	c34.41,6.61,67.96-6.14,89.56-30.6l155.23,29.93c-12.75,113.97-5.23,226.24,19.51,332.98l-102.7,24.18
	c-12.04-13.8-30.84-20.99-49.97-16.89c-28.17,6-46.16,33.69-40.16,61.87c6,28.17,33.69,46.16,61.87,40.16
	c19.99-4.23,34.6-19.46,39.4-37.98l103.65-24.41c29.6,104.12,75.81,202.35,136.53,290.72l-170.8,115.55
	c-7.14-3.38-14.71-6.04-22.84-7.57c-51.78-9.99-101.79,23.89-111.79,75.62c-9.99,51.78,23.89,101.79,75.62,111.79
	c51.78,9.99,101.79-23.89,111.79-75.62c1.57-8.09,1.95-16.13,1.43-24.03l175.32-118.59c67.15,79.81,147.1,149.19,237.37,204.97
	l-73.76,113.59c-5.09-0.48-10.28-0.43-15.51,0.67c-28.17,6-46.16,33.69-40.17,61.87s33.69,46.16,61.87,40.16
	c28.17-6,46.16-33.69,40.16-61.87c-1.09-5.24-3.19-9.99-5.71-14.47l74.95-115.45c88.47,48.83,185.88,84.99,290.48,105.22
	l-32.5,168.42c-30.74,10.99-55.11,37.36-61.72,71.76c-9.99,51.78,23.89,101.84,75.62,111.79c51.78,9.99,101.79-23.89,111.79-75.62
	c6.61-34.41-6.14-67.96-30.6-89.56l33.36-173.03c136.2,12.94,269.64-2.86,393.84-42.64l48.87,164.89
	c-12.37,12.09-18.56,29.93-14.7,48.11c6,28.17,33.69,46.16,61.87,40.16c28.17-6,46.16-33.69,40.16-61.87
	c-4.47-21.03-21.08-36.36-40.93-40.31l-49.44-166.8c62.1-23.32,121.59-52.73,177.6-87.71l153.76,227.28
	c-3.38,7.14-6.04,14.71-7.57,22.84c-9.99,51.78,23.89,101.79,75.62,111.79s101.79-23.89,111.79-75.62
	c9.99-51.78-23.89-101.84-75.62-111.79c-8.09-1.57-16.13-1.95-23.98-1.43l-154.43-228.24c86.94-66.86,162.9-148.29,224.05-241.37
	l162.75,105.69c-0.48,5.09-0.43,10.28,0.67,15.56c6,28.17,33.69,46.16,61.87,40.16c28.17-6,46.16-33.69,40.16-61.87
	c-6-28.17-33.69-46.16-61.87-40.16c-5.28,1.14-9.99,3.19-14.47,5.71l-163.51-106.17c43.12-73.24,77.47-152.9,101.03-238.09
	l248.98,48.02c10.99,30.74,37.36,55.11,71.76,61.72c51.78,9.99,101.84-23.89,111.79-75.62
	C-2845.91,1926.89-2879.75,1876.83-2931.52,1866.84z"/>
<g>
	
		<rect x="8206.33" y="-840.92" transform="matrix(-0.7086 0.7056 -0.7056 -0.7086 14306.0586 -5514.752)" class="st1" width="170.67" height="2074.67"/>
	<circle class="st1" cx="9023.58" cy="931.51" r="149.33"/>
	<circle class="st1" cx="7559.76" cy="-538.68" r="149.33"/>
</g>
<circle class="st1" cx="-3702.43" cy="3910.75" r="1072.35"/>
<g>
	<path class="st2" d="M3416.92,1158.56c-66.01,62.03-93.38,149.76-81.19,233.08L3191,1527.63
		c-209.31-180.6-459.15-291.53-718.3-331.85l9.77-198.4c71.34-44.72,120.42-122.42,124.87-212.89
		c7.24-147.05-106.1-272.13-253.15-279.37c-147.05-7.24-272.13,106.1-279.37,253.15c-4.46,90.48,36.75,172.62,103.35,224.13
		l-9.77,198.43c-279.08,15.67-554.93,112.1-789.7,290.47l-135.99-144.72c17.33-82.4-4.53-171.66-66.56-237.67
		c-100.82-107.29-269.53-112.54-376.82-11.71c-107.29,100.82-112.54,269.53-11.71,376.82c62.03,66.01,149.76,93.38,233.08,81.19
		l135.99,144.72c-180.6,209.31-291.53,459.15-331.85,718.3l-198.4-9.77c-44.72-71.34-122.42-120.42-212.89-124.87
		c-147.05-7.24-272.13,106.1-279.37,253.15c-7.24,147.05,106.1,272.13,253.15,279.37c90.48,4.46,172.62-36.75,224.13-103.35
		l198.43,9.77c15.67,279.08,112.1,554.93,290.47,789.7l-144.72,135.99c-82.4-17.33-171.66,4.53-237.67,66.56
		c-107.29,100.82-112.54,269.53-11.71,376.82c100.82,107.29,269.53,112.54,376.82,11.71c66.01-62.03,93.38-149.76,81.19-233.08
		L1309,3714.25c209.31,180.6,459.15,291.53,718.3,331.84l-9.77,198.4c-71.34,44.72-120.42,122.42-124.87,212.89
		c-7.24,147.05,106.1,272.13,253.15,279.37c147.05,7.24,272.13-106.1,279.37-253.15c4.46-90.48-36.75-172.62-103.35-224.13
		l9.77-198.43c279.07-15.67,554.93-112.1,789.69-290.47l135.99,144.72c-17.34,82.4,4.53,171.66,66.56,237.67
		c100.82,107.29,269.53,112.54,376.82,11.71c107.29-100.82,112.54-269.53,11.71-376.82c-62.03-66.01-149.76-93.38-233.08-81.19
		l-135.99-144.72c180.59-209.31,291.53-459.15,331.84-718.3l198.4,9.77c44.72,71.34,122.42,120.42,212.89,124.87
		c147.05,7.24,272.13-106.1,279.37-253.15c7.24-147.05-106.1-272.13-253.15-279.37c-90.48-4.46-172.62,36.75-224.13,103.35
		l-198.43-9.77c-15.67-279.07-112.1-554.93-290.47-789.69l144.72-135.99c82.4,17.33,171.66-4.53,237.67-66.56
		c107.29-100.82,112.53-269.53,11.71-376.82C3692.92,1062.98,3524.21,1057.73,3416.92,1158.56z"/>
	<path class="st3" d="M3247.56,3679.04c805.55-716.35,472.75-2129.85-551.82-2426.35c768.43,1159.7-1301.92,1492.27-1258.16,2560.66
		C1985.06,4193.89,2742.21,4153.92,3247.56,3679.04z"/>
	<circle class="st3" cx="2261.53" cy="1780.48" r="266.58"/>
	<circle class="st3" cx="1556.3" cy="2077.37" r="152.33"/>
</g>
<path class="st3" d="M8039.75,4582.71c451.25-401.28,264.82-1193.08-309.12-1359.18c430.45,649.64-729.3,835.93-704.79,1434.42
	C7332.53,4871.12,7756.66,4848.73,8039.75,4582.71z"/>
<path class="st3" d="M8189.95,6930.13c-87.26-4.3-166.49,35.44-216.17,99.68l-191.39-9.43
	c-15.11-269.16-108.11-535.21-280.15-761.64l139.58-131.16c79.47,16.72,165.56-4.37,229.23-64.2
	c103.48-97.24,108.54-259.96,11.3-363.44c-97.24-103.48-259.96-108.54-363.44-11.3c-63.67,59.83-90.06,144.44-78.31,224.8
	l-139.58,131.16c-201.88-174.18-442.84-281.18-692.78-320.06l9.42-191.35c68.81-43.13,116.14-118.07,120.44-205.33
	c6.99-141.83-102.33-262.46-244.16-269.45c-141.83-6.98-262.46,102.33-269.45,244.16c-4.3,87.26,35.44,166.49,99.68,216.17
	l-9.43,191.38c-269.16,15.11-535.22,108.11-761.64,280.15l-131.16-139.58c16.72-79.47-4.37-165.56-64.2-229.23
	c-97.24-103.48-259.96-108.54-363.44-11.3c-103.48,97.24-108.54,259.96-11.3,363.44c59.83,63.67,144.44,90.06,224.8,78.31
	l131.16,139.58c-174.18,201.88-281.18,442.84-320.06,692.78l-191.35-9.42c-43.13-68.81-118.07-116.14-205.33-120.44
	c-141.83-6.98-262.46,102.33-269.45,244.16c-6.99,141.83,102.33,262.46,244.16,269.45c87.26,4.3,166.49-35.44,216.17-99.68
	l191.38,9.43c15.11,269.16,108.11,535.22,280.15,761.64l-139.58,131.16c-79.47-16.72-165.56,4.37-229.23,64.2
	c-103.48,97.24-108.54,259.96-11.3,363.44c97.24,103.48,259.96,108.54,363.44,11.3c63.67-59.83,90.06-144.44,78.31-224.8
	l139.58-131.16c201.88,174.18,442.84,281.18,692.78,320.06l-9.42,191.35c-68.81,43.13-116.14,118.07-120.44,205.33
	c-6.98,141.83,102.33,262.46,244.16,269.45s262.47-102.33,269.45-244.16c4.3-87.26-35.44-166.49-99.68-216.17l9.42-191.38
	c269.16-15.11,535.22-108.12,761.64-280.15l131.16,139.58c-16.72,79.47,4.37,165.56,64.2,229.23
	c97.24,103.48,259.96,108.54,363.44,11.3c103.48-97.24,108.54-259.96,11.3-363.44c-59.83-63.67-144.44-90.06-224.8-78.31
	l-131.16-139.58c174.18-201.88,281.18-442.84,320.06-692.78l191.35,9.42c43.13,68.81,118.07,116.14,205.33,120.44
	c141.83,6.99,262.47-102.33,269.45-244.16C8441.09,7057.76,8331.78,6937.12,8189.95,6930.13z M5934.75,7286.45
	c-103.48,97.24-266.2,92.18-363.44-11.3c-97.24-103.48-92.18-266.2,11.3-363.44c103.48-97.24,266.2-92.18,363.44,11.3
	C6043.29,7026.49,6038.23,7189.21,5934.75,7286.45z M6494.05,7805.59c-59.13,55.57-152.11,52.68-207.68-6.46
	c-55.57-59.13-52.68-152.11,6.46-207.68c59.13-55.57,152.11-52.68,207.68,6.45C6556.08,7657.04,6553.19,7750.02,6494.05,7805.59z
	 M6749.38,7133.55c-276,0-499.74-223.74-499.74-499.74c0-276,223.74-499.74,499.74-499.74c276,0,499.74,223.74,499.74,499.74
	C7249.12,6909.8,7025.38,7133.55,6749.38,7133.55z"/>
</svg>
