<?xml version="1.0" encoding="utf-8"?>
<!-- Generator: Adobe Illustrator 23.0.3, SVG Export Plug-In . SVG Version: 6.00 Build 0)  -->
<svg version="1.1" id="Ebene_1" xmlns="http://www.w3.org/2000/svg" xmlns:xlink="http://www.w3.org/1999/xlink" x="0px" y="0px"
	 viewBox="0 0 368.5 170.08" style="enable-background:new 0 0 368.5 170.08;" xml:space="preserve">
<style type="text/css">
	.st0{fill:#E30613;stroke:#E30613;stroke-width:0.7285;stroke-miterlimit:3.8637;}
	.st1{fill:#E30613;stroke:#E30613;stroke-width:0.7682;stroke-miterlimit:3.8637;}
	.st2{fill:#E30613;stroke:#E30613;stroke-width:0.8212;stroke-miterlimit:3.8637;}
	.st3{fill:#E30613;stroke:#E30613;stroke-width:0.8774;stroke-miterlimit:3.8637;}
	.st4{fill:#E30613;stroke:#E30613;stroke-width:0.9537;stroke-miterlimit:3.8637;}
	.st5{fill:#E30613;stroke:#E30613;stroke-miterlimit:3.8637;}
	.st6{fill:#E30613;stroke:#E30613;stroke-width:1.0281;stroke-miterlimit:3.8637;}
	.st7{fill:#E30613;stroke:#E30613;stroke-width:1.0597;stroke-miterlimit:3.8637;}
	.st8{fill:#E30613;stroke:#E30613;stroke-width:1.2897;stroke-miterlimit:3.8637;}
	.st9{fill:#E30613;stroke:#E30613;stroke-width:1.1921;stroke-miterlimit:3.8637;}
	.st10{fill:#E30613;stroke:#E30613;stroke-width:1.3247;stroke-miterlimit:3.8637;}
	.st11{fill:#E30613;stroke:#E30613;stroke-width:1.4571;stroke-miterlimit:3.8637;}
	.st12{fill:#E30613;stroke:#E30613;stroke-width:1.5895;stroke-miterlimit:3.8637;}
	.st13{fill-rule:evenodd;clip-rule:evenodd;fill:#00854C;}
	.st14{fill:#00854C;}
	.st15{fill-rule:evenodd;clip-rule:evenodd;}
</style>
<path class="st0" d="M263.47,78.65c0-0.93,0.75-1.68,1.68-1.68c0.93,0,1.68,0.75,1.68,1.68c0,0.92-0.75,1.67-1.68,1.67
	C264.22,80.33,263.47,79.58,263.47,78.65L263.47,78.65z"/>
<path class="st1" d="M257.91,67.92c0-1.21,0.98-2.18,2.18-2.18c1.21,0,2.18,0.98,2.18,2.18c0,1.21-0.98,2.18-2.18,2.18
	C258.89,70.11,257.91,69.13,257.91,67.92L257.91,67.92z"/>
<path class="st2" d="M250.44,56.99c0-1.38,1.12-2.51,2.51-2.51c1.38,0,2.51,1.12,2.51,2.51c0,1.38-1.12,2.51-2.51,2.51
	C251.56,59.49,250.44,58.37,250.44,56.99L250.44,56.99z"/>
<path class="st3" d="M239.51,44.89c0-1.77,1.44-3.21,3.21-3.21c1.77,0,3.21,1.44,3.21,3.21c0,1.77-1.44,3.21-3.21,3.21
	C240.95,48.1,239.51,46.66,239.51,44.89L239.51,44.89z"/>
<path class="st4" d="M224.21,33.56c0-1.97,1.6-3.56,3.56-3.56c1.97,0,3.57,1.6,3.57,3.56c0,1.97-1.6,3.57-3.57,3.57
	C225.8,37.13,224.21,35.53,224.21,33.56L224.21,33.56z"/>
<path class="st5" d="M205.42,25.71c0-2.07,1.68-3.75,3.75-3.75c2.07,0,3.75,1.68,3.75,3.75c0,2.07-1.68,3.75-3.75,3.75
	C207.1,29.46,205.42,27.78,205.42,25.71L205.42,25.71z"/>
<path class="st6" d="M182.52,22.66c0-2.41,1.95-4.36,4.36-4.36c2.41,0,4.36,1.95,4.36,4.36c0,2.41-1.95,4.36-4.36,4.36
	C184.47,27.01,182.52,25.06,182.52,22.66L182.52,22.66z"/>
<path class="st7" d="M158.06,26.84c0-2.75,2.23-4.99,4.99-4.99c2.75,0,4.99,2.23,4.99,4.99s-2.23,4.99-4.99,4.99
	C160.29,31.82,158.06,29.59,158.06,26.84L158.06,26.84z"/>
<path class="st8" d="M136.03,38.34c-0.05-2.98,2.32-5.43,5.3-5.48c2.98-0.05,5.43,2.32,5.48,5.3c0.05,2.98-2.32,5.43-5.3,5.48
	C138.53,43.69,136.08,41.32,136.03,38.34L136.03,38.34z"/>
<path class="st9" d="M117.46,54.93c0-3.42,2.78-6.2,6.2-6.2c3.42,0,6.2,2.78,6.2,6.2c0,3.42-2.78,6.2-6.2,6.2
	C120.24,61.13,117.46,58.36,117.46,54.93L117.46,54.93z"/>
<path class="st10" d="M103.04,76.33c0-3.78,3.06-6.84,6.84-6.84c3.78,0,6.84,3.06,6.84,6.84c0,3.78-3.06,6.84-6.84,6.84
	C106.1,83.18,103.04,80.11,103.04,76.33L103.04,76.33z"/>
<path class="st11" d="M93.99,101.66c0-3.99,3.24-7.23,7.23-7.23c3.99,0,7.23,3.24,7.23,7.23c0,3.99-3.24,7.23-7.23,7.23
	C97.22,108.89,93.99,105.65,93.99,101.66L93.99,101.66z"/>
<path class="st12" d="M88.32,129.69c0-4.74,3.85-8.59,8.59-8.59c4.74,0,8.59,3.85,8.59,8.59c0,4.75-3.85,8.59-8.59,8.59
	C92.17,138.29,88.32,134.44,88.32,129.69L88.32,129.69z"/>
<path class="st13" d="M353.23,97.83C256.79,88.08,117.44,86.96,15,99.61C126.11,74.94,261.21,77.18,353.23,97.83L353.23,97.83z"/>
<path class="st14" d="M131.29,148.35c0.09,0.29,0.16,0.34,0.43,0.34h1.15c0.25,0,0.29-0.05,0.38-0.34l2.61-8.44
	c0.04-0.12,0.07-0.27,0.07-0.32c0-0.22-0.2-0.22-0.36-0.22h-1.06c-0.29,0-0.32,0.09-0.4,0.36l-1.66,6.03l-1.87-6.07
	c-0.09-0.25-0.11-0.32-0.32-0.32c-0.2,0-0.58,0-0.61,0.02c-0.14,0.04-0.18,0.18-0.23,0.34l-1.82,6.03l-1.66-6.03
	c-0.09-0.34-0.22-0.36-0.52-0.36h-1.49c-0.13,0-0.36,0-0.36,0.25c0,0.07,0.02,0.14,0.07,0.32l2.65,8.42
	c0.09,0.27,0.14,0.32,0.41,0.32h1.13c0.27,0,0.31-0.04,0.4-0.31l1.53-4.86L131.29,148.35L131.29,148.35z"/>
<path class="st13" d="M143.23,143.24c0.22-0.04,0.63-0.09,0.63-0.72c0-0.87-0.67-3.38-3.47-3.38c-1.93,0-4.03,1.3-4.03,4.88
	c0,3.19,1.66,4.91,4.03,4.91c2.83,0,3.56-2.63,3.56-3.13c0-0.36-0.23-0.56-0.47-0.56s-0.32,0.11-0.61,0.52
	c-0.47,0.61-1.19,1.19-2.14,1.19c-0.86,0-2.18-0.49-2.48-2.97L143.23,143.24L143.23,143.24z M138.16,142.86
	c0.09-1.24,0.65-2.38,1.89-2.38c0.79,0,1.49,0.67,1.57,1.82L138.16,142.86L138.16,142.86z"/>
<path class="st14" d="M145.53,148.31c0,0.36,0.11,0.38,0.41,0.38h1.42c0.29,0,0.4-0.05,0.4-0.38v-13.05c0-0.32-0.09-0.34-0.4-0.34
	h-1.42c-0.32,0-0.41,0.05-0.41,0.34V148.31L145.53,148.31z"/>
<path class="st14" d="M154.06,140.36c0.31,0,0.31-0.07,0.31-0.74c0-0.25-0.14-0.25-0.34-0.25h-1.37v-2.11c0-0.22-0.02-0.5-0.25-0.5
	c-0.07,0-0.13,0.02-0.32,0.14l-1.3,0.83c-0.27,0.2-0.32,0.29-0.32,0.63v1.01h-0.88c-0.23,0-0.31,0.07-0.31,0.29
	c0,0.63,0,0.7,0.32,0.7h0.86v5.92c0,0.58,0.02,1.22,0.52,1.84c0.36,0.43,0.99,0.79,1.96,0.79c0.72,0,1.73-0.29,1.73-0.79
	c0-0.47-0.34-0.47-0.79-0.47c-1.21-0.05-1.22-1.21-1.22-1.73v-5.56H154.06L154.06,140.36z"/>
<path class="st13" d="M163.42,140.34c0.2-0.05,0.27-0.09,0.27-0.22c0-0.07-0.13-0.6-0.14-0.65c-0.02-0.05-0.07-0.13-0.18-0.11
	c-0.07,0-1.44,0.27-1.71,0.27c-0.4,0.02-0.65-0.07-1.06-0.22c-0.31-0.11-0.83-0.29-1.62-0.29c-2.18,0-3.44,1.37-3.44,3.15
	c0,0.49,0.11,1.04,0.36,1.57c0.41,0.79,0.85,1.03,1.24,1.26c-0.67,0.54-1.62,1.39-1.62,2.21c0,0.92,0.81,1.19,1.26,1.33
	c-0.72,0.43-1.69,1.21-1.69,2.25c0,1.6,1.89,2.11,3.53,2.11c4.21,0,5.44-2.41,5.44-3.67c0-2.07-2.23-2.25-3.11-2.32l-1.64-0.07
	c-1.17-0.05-1.76-0.12-1.76-0.63c0-0.29,0.18-0.5,0.52-0.9c0.22,0.04,0.59,0.11,1.04,0.11c1.57,0,3.4-0.9,3.4-3.08
	c0-0.9-0.25-1.3-0.49-1.72L163.42,140.34L163.42,140.34z M157.8,148.91c0.47,0.04,2.57,0.11,3.01,0.16
	c0.36,0.05,1.22,0.14,1.22,0.95c0,0.94-1.4,1.58-2.68,1.58c-1.3,0-2.34-0.45-2.34-1.39c0-0.54,0.31-0.86,0.79-1.33V148.91
	L157.8,148.91z M160.43,141.92c0.04,0.21,0.05,0.41,0.05,0.63c0,0.9-0.43,1.62-1.33,1.62c-0.9,0-1.64-0.96-1.64-2.23
	c0-1.13,0.7-1.64,1.4-1.64C159.69,140.3,160.25,140.97,160.43,141.92L160.43,141.92z"/>
<path class="st13" d="M171.17,143.24c0.22-0.04,0.63-0.09,0.63-0.72c0-0.87-0.67-3.38-3.47-3.38c-1.93,0-4.03,1.3-4.03,4.88
	c0,3.19,1.66,4.91,4.03,4.91c2.83,0,3.56-2.63,3.56-3.13c0-0.36-0.23-0.56-0.47-0.56s-0.32,0.11-0.61,0.52
	c-0.47,0.61-1.19,1.19-2.14,1.19c-0.86,0-2.18-0.49-2.48-2.97L171.17,143.24L171.17,143.24z M166.1,142.86
	c0.09-1.24,0.65-2.38,1.89-2.38c0.79,0,1.49,0.67,1.57,1.82L166.1,142.86L166.1,142.86z"/>
<path class="st14" d="M180.25,148.35c0.09,0.29,0.16,0.34,0.43,0.34h1.15c0.25,0,0.29-0.05,0.38-0.34l2.61-8.44
	c0.04-0.12,0.07-0.27,0.07-0.32c0-0.22-0.2-0.22-0.36-0.22h-1.06c-0.29,0-0.32,0.09-0.4,0.36l-1.66,6.03l-1.87-6.07
	c-0.09-0.25-0.11-0.32-0.32-0.32c-0.2,0-0.58,0-0.61,0.02c-0.14,0.04-0.18,0.18-0.23,0.34l-1.82,6.03l-1.66-6.03
	c-0.09-0.34-0.22-0.36-0.52-0.36h-1.49c-0.13,0-0.36,0-0.36,0.25c0,0.07,0.02,0.14,0.07,0.32l2.65,8.42
	c0.09,0.27,0.14,0.32,0.41,0.32h1.13c0.27,0,0.31-0.04,0.4-0.31l1.53-4.86L180.25,148.35L180.25,148.35z"/>
<path class="st13" d="M191.95,142.28c0-1.33,0.02-3.15-2.88-3.15c-2.18,0-3.58,1.08-3.58,2.18c0,0.58,0.43,0.96,0.97,0.96
	c0.68,0,0.85-0.45,1.01-0.9c0.14-0.32,0.4-0.99,1.26-0.99c1.08,0,1.1,0.97,1.1,1.64v0.92c-2.05,0.54-3.22,0.85-4.02,1.62
	c-0.72,0.68-0.79,1.44-0.79,1.84c0,2.54,2.92,2.54,3.49,2.54c0.32,0,1.71-0.02,2.64-0.54c0.7-0.38,0.78-0.81,0.79-1.6V142.28
	L191.95,142.28z M189.82,146.5c0,0.39-0.02,1.19-1.12,1.19c-0.95,0-1.49-0.65-1.49-1.55c0-1.35,1.21-1.73,2.61-2.16V146.5
	L189.82,146.5z"/>
<path class="st14" d="M201.4,141.98c0-0.63-0.02-1.47-0.83-2.14c-0.31-0.25-0.94-0.7-2.74-0.7c-1.04,0-2.09,0.13-3.04,0.56
	c-0.81,0.38-0.85,0.79-0.85,1.51v7.11c0,0.3,0.09,0.38,0.38,0.38h1.42c0.34,0,0.43-0.07,0.43-0.43v-6.39c0-0.41,0-1.51,1.44-1.51
	c1.53,0,1.55,1.12,1.55,1.84v6.08c0,0.27,0.04,0.41,0.4,0.41H201c0.29,0,0.4-0.05,0.4-0.38V141.98L201.4,141.98z"/>
<path class="st13" d="M210.73,135.32c0-0.32-0.09-0.39-0.43-0.39h-1.39c-0.36,0-0.41,0.16-0.41,0.43v4.25
	c-0.36-0.22-0.81-0.49-1.64-0.49c-2.65,0-4,2.65-4,5.17c0,2.93,1.55,4.64,4.23,4.64c1.15,0,2.45-0.31,3.06-0.76
	c0.54-0.4,0.58-0.87,0.58-1.33V135.32L210.73,135.32z M208.5,146.12c0,0.56,0,1.35-1.12,1.35c-1.33,0-2.27-1.31-2.27-3.58
	c0-1.93,0.81-3.54,2.21-3.54c0.58,0,0.94,0.27,1.17,0.45V146.12L208.5,146.12z"/>
<path class="st14" d="M216.66,140.36c0.31,0,0.31-0.07,0.31-0.74c0-0.25-0.14-0.25-0.34-0.25h-1.37v-2.11c0-0.22-0.02-0.5-0.25-0.5
	c-0.07,0-0.12,0.02-0.32,0.14l-1.29,0.83c-0.27,0.2-0.32,0.29-0.32,0.63v1.01h-0.88c-0.23,0-0.31,0.07-0.31,0.29
	c0,0.63,0,0.7,0.32,0.7h0.86v5.92c0,0.58,0.02,1.22,0.52,1.84c0.36,0.43,0.99,0.79,1.96,0.79c0.72,0,1.73-0.29,1.73-0.79
	c0-0.47-0.34-0.47-0.79-0.47c-1.21-0.05-1.22-1.21-1.22-1.73v-5.56H216.66L216.66,140.36z"/>
<path class="st13" d="M229.84,148.26c0.34,0.41,0.36,0.43,0.83,0.43h1.53c0.18,0,0.36-0.04,0.36-0.25c0-0.11-0.04-0.18-0.2-0.38
	l-2.74-3.53c0.9-1.1,1.12-1.1,2.11-1.13c0.92-0.04,1.04-0.65,1.04-0.9c0-0.27-0.13-0.92-1.03-0.92c-1.42,0-2.5,1.55-2.85,2.05
	l-1.58-2.05c1.57-0.92,2.72-1.86,2.72-3.35c0-1.4-1.06-2.52-3.13-2.52c-2.29,0-3.47,1.24-3.47,2.83c0,1.04,0.49,1.89,1.42,3.19
	c-1.15,0.7-1.28,0.78-1.6,1.01c-0.38,0.29-1.75,1.31-1.75,3.1c0,1.51,1.17,3.13,3.22,3.13c2.07,0,3.06-1.6,3.67-2.57L229.84,148.26
	L229.84,148.26z M227.66,145.43c-0.36,0.59-1.01,1.64-2.18,1.64c-1.13,0-1.84-1.03-1.84-1.95c0-1.24,1.1-1.93,1.93-2.45
	L227.66,145.43L227.66,145.43z M226.62,140.66c-0.7-0.9-1.19-1.51-1.19-2.3c0-0.95,0.77-1.4,1.4-1.4c0.81,0,1.46,0.61,1.46,1.51
	C228.29,139.6,227.16,140.32,226.62,140.66L226.62,140.66z"/>
<path class="st13" d="M239.57,135.3c0-0.34-0.11-0.38-0.43-0.38h-1.42c-0.29,0-0.36,0.09-0.36,0.38v10.91c0,1.08,0.02,1.4,0.54,1.87
	c0.61,0.52,1.6,0.85,2.76,0.85c2.84,0,4.54-2.18,4.54-5.42c0-2.56-1.13-4.38-3.11-4.38c-1.33,0-2.14,0.76-2.5,1.1V135.3
	L239.57,135.3z M239.57,141.38c0.29-0.23,0.79-0.67,1.47-0.67c1.75,0,1.93,2.39,1.93,3.28c0,2.36-1.06,3.53-2.12,3.53
	c-0.4,0-1.12-0.2-1.24-1.03c-0.04-0.18-0.04-0.36-0.04-0.79V141.38L239.57,141.38z"/>
<path class="st13" d="M255.13,143.92c-0.05-2.18-1.33-4.79-4.27-4.79c-2.63,0-4.32,2.09-4.32,4.9c0,2.77,1.64,4.9,4.28,4.9
	C253.63,148.93,255.18,146.57,255.13,143.92L255.13,143.92z M252.79,143.81c0.09,2.07-0.72,3.62-1.87,3.62
	c-1.19,0-2.05-1.66-2.05-3.67c0-1.82,0.67-3.29,1.89-3.29C251.81,140.46,252.7,141.67,252.79,143.81L252.79,143.81z"/>
<path class="st13" d="M264.35,135.32c0-0.32-0.09-0.39-0.43-0.39h-1.38c-0.36,0-0.41,0.16-0.41,0.43v4.25
	c-0.36-0.22-0.81-0.49-1.64-0.49c-2.65,0-4,2.65-4,5.17c0,2.93,1.55,4.64,4.23,4.64c1.15,0,2.45-0.31,3.06-0.76
	c0.54-0.4,0.57-0.87,0.57-1.33V135.32L264.35,135.32z M262.12,146.12c0,0.56,0,1.35-1.12,1.35c-1.33,0-2.27-1.31-2.27-3.58
	c0-1.93,0.81-3.54,2.21-3.54c0.58,0,0.94,0.27,1.17,0.45V146.12L262.12,146.12z"/>
<path class="st13" d="M272.93,143.24c0.22-0.04,0.63-0.09,0.63-0.72c0-0.87-0.67-3.38-3.47-3.38c-1.93,0-4.03,1.3-4.03,4.88
	c0,3.19,1.65,4.91,4.03,4.91c2.83,0,3.56-2.63,3.56-3.13c0-0.36-0.23-0.56-0.47-0.56s-0.32,0.11-0.61,0.52
	c-0.47,0.61-1.19,1.19-2.14,1.19c-0.86,0-2.18-0.49-2.48-2.97L272.93,143.24L272.93,143.24z M267.86,142.86
	c0.09-1.24,0.65-2.38,1.89-2.38c0.79,0,1.49,0.67,1.57,1.82L267.86,142.86L267.86,142.86z"/>
<path class="st14" d="M282.69,141.98c0-0.63-0.02-1.47-0.83-2.14c-0.3-0.25-0.94-0.7-2.74-0.7c-1.04,0-2.09,0.13-3.04,0.56
	c-0.81,0.38-0.85,0.79-0.85,1.51v7.11c0,0.3,0.09,0.38,0.38,0.38h1.42c0.34,0,0.43-0.07,0.43-0.43v-6.39c0-0.41,0-1.51,1.44-1.51
	c1.53,0,1.55,1.12,1.55,1.84v6.08c0,0.27,0.04,0.41,0.39,0.41h1.44c0.29,0,0.39-0.05,0.39-0.38V141.98L282.69,141.98z"/>
<path class="st14" d="M288.05,142.91c-0.63-0.27-1.42-0.61-1.42-1.51c0-0.47,0.34-1.08,1.08-1.08c0.74,0,1.05,0.54,1.22,0.88
	c0.2,0.34,0.43,0.74,0.99,0.74c0.5,0,0.86-0.38,0.86-0.88c0-0.72-0.81-1.93-2.99-1.93c-2.29,0-3.13,1.37-3.13,2.65
	c0,1.67,1.44,2.38,1.98,2.63c0.45,0.22,1.55,0.74,1.8,0.92c0.18,0.16,0.58,0.5,0.58,1.12c0,0.67-0.49,1.12-1.13,1.12
	c-0.72,0-1.04-0.47-1.47-1.08c-0.25-0.34-0.5-0.7-1.01-0.7c-0.52,0-0.92,0.43-0.92,0.97c0,0.72,0.87,2.18,3.35,2.18
	c2.68,0,3.24-1.82,3.24-2.83c0-1.73-1.3-2.38-2.12-2.77L288.05,142.91L288.05,142.91z"/>
<path class="st14" d="M296.72,140.36c0.31,0,0.31-0.07,0.31-0.74c0-0.25-0.14-0.25-0.34-0.25h-1.37v-2.11c0-0.22-0.02-0.5-0.25-0.5
	c-0.07,0-0.12,0.02-0.32,0.14l-1.29,0.83c-0.27,0.2-0.32,0.29-0.32,0.63v1.01h-0.88c-0.23,0-0.3,0.07-0.3,0.29
	c0,0.63,0,0.7,0.32,0.7h0.86v5.92c0,0.58,0.02,1.22,0.52,1.84c0.36,0.43,0.99,0.79,1.96,0.79c0.72,0,1.73-0.29,1.73-0.79
	c0-0.47-0.34-0.47-0.79-0.47c-1.21-0.05-1.22-1.21-1.22-1.73v-5.56H296.72L296.72,140.36z"/>
<path class="st13" d="M301.43,136.88c-0.02-0.65-0.54-1.08-1.15-1.08c-0.63,0-1.21,0.43-1.21,1.12c0,0.63,0.47,1.12,1.17,1.12
	C301.07,138.04,301.44,137.44,301.43,136.88L301.43,136.88z M304.81,136.88c-0.02-0.67-0.56-1.08-1.15-1.08
	c-0.63,0-1.21,0.43-1.21,1.13c0,0.59,0.45,1.1,1.19,1.1C304.45,138.04,304.83,137.46,304.81,136.88L304.81,136.88z M305.12,142.28
	c0-1.33,0.02-3.15-2.88-3.15c-2.18,0-3.58,1.08-3.58,2.18c0,0.58,0.43,0.96,0.97,0.96c0.69,0,0.85-0.45,1.01-0.9
	c0.14-0.32,0.39-0.99,1.26-0.99c1.08,0,1.1,0.97,1.1,1.64v0.92c-2.05,0.54-3.22,0.85-4.01,1.62c-0.72,0.68-0.79,1.44-0.79,1.84
	c0,2.54,2.92,2.54,3.49,2.54c0.32,0,1.71-0.02,2.65-0.54c0.7-0.38,0.77-0.81,0.79-1.6V142.28L305.12,142.28z M302.99,146.5
	c0,0.39-0.02,1.19-1.12,1.19c-0.95,0-1.49-0.65-1.49-1.55c0-1.35,1.21-1.73,2.61-2.16V146.5L302.99,146.5z"/>
<path class="st14" d="M314.57,141.98c0-0.63-0.02-1.47-0.83-2.14c-0.31-0.25-0.94-0.7-2.74-0.7c-1.04,0-2.09,0.13-3.04,0.56
	c-0.81,0.38-0.85,0.79-0.85,1.51v7.11c0,0.3,0.09,0.38,0.38,0.38h1.42c0.34,0,0.43-0.07,0.43-0.43v-6.39c0-0.41,0-1.51,1.44-1.51
	c1.53,0,1.55,1.12,1.55,1.84v6.08c0,0.27,0.04,0.41,0.4,0.41h1.44c0.29,0,0.4-0.05,0.4-0.38V141.98L314.57,141.98z"/>
<path class="st13" d="M324.17,135.32c0-0.32-0.09-0.39-0.43-0.39h-1.39c-0.36,0-0.41,0.16-0.41,0.43v4.25
	c-0.36-0.22-0.81-0.49-1.64-0.49c-2.65,0-4,2.65-4,5.17c0,2.93,1.55,4.64,4.23,4.64c1.15,0,2.45-0.31,3.06-0.76
	c0.54-0.4,0.58-0.87,0.58-1.33V135.32L324.17,135.32z M321.94,146.12c0,0.56,0,1.35-1.12,1.35c-1.33,0-2.27-1.31-2.27-3.58
	c0-1.93,0.81-3.54,2.21-3.54c0.58,0,0.94,0.27,1.17,0.45V146.12L321.94,146.12z"/>
<path class="st13" d="M328.52,139.76c-0.02-0.31-0.05-0.4-0.4-0.4h-1.53c-0.31,0-0.34,0.13-0.34,0.38v8.57
	c0,0.29,0.02,0.38,0.3,0.38h1.57c0.36,0,0.4-0.11,0.4-0.4V139.76L328.52,139.76z M328.56,136.94c-0.02-0.58-0.4-1.08-1.17-1.08
	c-0.79,0-1.22,0.5-1.22,1.13c0,0.63,0.47,1.08,1.22,1.08C328.09,138.07,328.58,137.6,328.56,136.94L328.56,136.94z"/>
<path class="st13" d="M338.32,140.34c0.2-0.05,0.27-0.09,0.27-0.22c0-0.07-0.13-0.6-0.14-0.65c-0.02-0.05-0.07-0.13-0.18-0.11
	c-0.07,0-1.44,0.27-1.71,0.27c-0.4,0.02-0.65-0.07-1.06-0.22c-0.3-0.11-0.83-0.29-1.62-0.29c-2.18,0-3.44,1.37-3.44,3.15
	c0,0.49,0.11,1.04,0.36,1.57c0.41,0.79,0.85,1.03,1.24,1.26c-0.67,0.54-1.62,1.39-1.62,2.21c0,0.92,0.81,1.19,1.26,1.33
	c-0.72,0.43-1.69,1.21-1.69,2.25c0,1.6,1.89,2.11,3.53,2.11c4.21,0,5.44-2.41,5.44-3.67c0-2.07-2.23-2.25-3.12-2.32l-1.64-0.07
	c-1.17-0.05-1.76-0.12-1.76-0.63c0-0.29,0.18-0.5,0.52-0.9c0.22,0.04,0.59,0.11,1.04,0.11c1.56,0,3.4-0.9,3.4-3.08
	c0-0.9-0.25-1.3-0.49-1.72L338.32,140.34L338.32,140.34z M332.7,148.91c0.47,0.04,2.57,0.11,3.01,0.16
	c0.36,0.05,1.22,0.14,1.22,0.95c0,0.94-1.4,1.58-2.68,1.58c-1.3,0-2.34-0.45-2.34-1.39c0-0.54,0.31-0.86,0.79-1.33V148.91
	L332.7,148.91z M335.33,141.92c0.04,0.21,0.05,0.41,0.05,0.63c0,0.9-0.43,1.62-1.33,1.62s-1.64-0.96-1.64-2.23
	c0-1.13,0.7-1.64,1.4-1.64C334.59,140.3,335.15,140.97,335.33,141.92L335.33,141.92z"/>
<path d="M139.7,103.37c0.31-0.41,0.38-0.59,0.38-0.76c0-0.38-0.34-0.48-0.66-0.45h-2.42c-0.72,0-0.79,0.1-1.24,0.69l-7.18,9.7v-9.7
	c0-0.52-0.07-0.72-0.72-0.69h-3.07c-0.55,0-0.76,0.14-0.76,0.72v22.94c0,0.66,0.31,0.69,0.72,0.69h3.11c0.45,0,0.72-0.1,0.72-0.76
	v-11.21l7.21,11.25c0.45,0.65,0.48,0.72,1.24,0.72h3.76c0.35,0,0.62-0.1,0.62-0.48c0-0.21-0.1-0.38-0.24-0.62l-8.49-12.66
	L139.7,103.37L139.7,103.37z"/>
<path d="M147.56,112.44c0-0.86,0.04-2.07,1.83-2.07c1.04,0,1.41,0.55,1.73,0.97c0.52,0.79,0.83,1.31,1.76,1.31
	c1.1,0,1.83-0.83,1.83-1.86c0-2.04-2-2.59-4.14-2.59c-2.66,0-5.14,0.55-6.31,1.21c-0.86,0.45-1,0.9-1,1.97v14.42
	c0,0.59,0.17,0.72,0.76,0.72h2.83c0.59,0,0.69-0.17,0.72-0.72V112.44L147.56,112.44z"/>
<path class="st15" d="M167.77,116.06c0.41-0.07,1.21-0.17,1.21-1.38c0-1.66-1.28-6.49-6.66-6.49c-3.69,0-7.73,2.48-7.73,9.35
	c0,6.11,3.17,9.42,7.73,9.42c5.42,0,6.83-5.04,6.83-6c0-0.69-0.45-1.07-0.9-1.07c-0.45,0-0.62,0.21-1.17,1
	c-0.9,1.17-2.28,2.28-4.11,2.28c-1.66,0-4.17-0.93-4.76-5.69L167.77,116.06L167.77,116.06z M158.04,115.34
	c0.17-2.38,1.24-4.55,3.62-4.55c1.52,0,2.86,1.28,3,3.48L158.04,115.34L158.04,115.34z"/>
<path class="st15" d="M176.18,109.4c-0.04-0.59-0.1-0.76-0.76-0.76h-2.93c-0.59,0-0.66,0.24-0.66,0.72v16.42
	c0,0.55,0.04,0.72,0.59,0.72h3c0.69,0,0.76-0.21,0.76-0.76V109.4L176.18,109.4z M176.24,103.99c-0.03-1.1-0.76-2.07-2.24-2.07
	c-1.52,0-2.35,0.97-2.35,2.17c0,1.21,0.9,2.07,2.35,2.07C175.35,106.16,176.28,105.26,176.24,103.99L176.24,103.99z"/>
<path d="M185.92,115.44c-1.21-0.52-2.73-1.17-2.73-2.9c0-0.9,0.66-2.07,2.07-2.07c1.41,0,2,1.04,2.35,1.69
	c0.38,0.65,0.83,1.41,1.9,1.41c0.97,0,1.66-0.72,1.66-1.69c0-1.38-1.55-3.69-5.73-3.69c-4.38,0-6,2.62-6,5.07
	c0,3.21,2.76,4.55,3.79,5.04c0.86,0.41,2.97,1.41,3.45,1.76c0.34,0.31,1.1,0.96,1.1,2.14c0,1.28-0.93,2.14-2.17,2.14
	c-1.38,0-2-0.9-2.83-2.07c-0.48-0.66-0.97-1.35-1.93-1.35c-1,0-1.76,0.83-1.76,1.86c0,1.38,1.66,4.17,6.42,4.17
	c5.14,0,6.21-3.48,6.21-5.42c0-3.31-2.48-4.55-4.07-5.31L185.92,115.44L185.92,115.44z"/>
<path d="M218.75,120.96c0,1.04-0.03,1.72-0.79,2.28c-0.59,0.41-1.55,0.65-2.55,0.65c-4.55,0-6.87-4.42-6.87-10.14
	c0-6.24,2.72-9.31,6.14-9.31c2.45,0,3.48,1.59,4.21,2.72c0.52,0.83,1.04,1.69,2.28,1.69c1.1,0,2.04-0.83,2.04-2.04
	c0-1.83-2.69-5.24-8.45-5.24c-6.87,0-11.25,5.38-11.25,12.76c0,6,2.76,12.73,11.56,12.73c4.07,0,6.52-1.48,7.52-2.69
	c0.52-0.62,0.55-0.97,0.59-1.97v-7.8c0-0.62-0.07-0.86-0.76-0.86h-7.31c-0.48,0-0.79,0-0.79,0.62c0,0.59,0,1.66,0.03,1.79
	c0.07,0.35,0.24,0.42,0.76,0.42h3.66V120.96L218.75,120.96z"/>
<path class="st15" d="M232.4,103.88c-0.04-1.24-1.04-2.07-2.21-2.07c-1.21,0-2.31,0.83-2.31,2.14c0,1.21,0.9,2.14,2.24,2.14
	C231.71,106.09,232.43,104.95,232.4,103.88L232.4,103.88z M238.88,103.88c-0.03-1.28-1.07-2.07-2.21-2.07
	c-1.21,0-2.31,0.83-2.31,2.17c0,1.14,0.86,2.11,2.28,2.11C238.2,106.09,238.92,104.99,238.88,103.88L238.88,103.88z M240.75,109.37
	c0-0.66-0.28-0.72-0.83-0.72h-2.73c-0.55,0-0.72,0.17-0.72,0.72v11.94c0,1.14-0.04,2.79-2.79,2.79c-2.97,0-3-2.07-3-3.21v-11.56
	c0-0.59-0.24-0.72-0.76-0.69h-2.83c-0.45,0-0.72,0.1-0.72,0.65v12.04c0,2.17,0.41,5.62,7.07,5.62c2.9,0,5-0.76,5.97-1.35
	c1.31-0.9,1.35-1.86,1.35-3.38V109.37L240.75,109.37z"/>
<path d="M251.74,110.54c0.59,0,0.59-0.14,0.59-1.41c0-0.48-0.28-0.48-0.65-0.48h-2.62v-4.04c0-0.41-0.03-0.96-0.48-0.96
	c-0.14,0-0.24,0.03-0.62,0.28l-2.48,1.59c-0.52,0.38-0.62,0.55-0.62,1.21v1.93h-1.69c-0.45,0-0.59,0.14-0.59,0.55
	c0,1.21,0,1.35,0.62,1.35h1.65v11.35c0,1.1,0.04,2.35,1,3.52c0.69,0.83,1.9,1.52,3.76,1.52c1.38,0,3.31-0.55,3.31-1.52
	c0-0.9-0.66-0.9-1.52-0.9c-2.31-0.1-2.35-2.31-2.35-3.31v-10.66H251.74L251.74,110.54z"/>
<path class="st15" d="M266.88,116.06c0.41-0.07,1.21-0.17,1.21-1.38c0-1.66-1.28-6.49-6.66-6.49c-3.69,0-7.73,2.48-7.73,9.35
	c0,6.11,3.17,9.42,7.73,9.42c5.42,0,6.83-5.04,6.83-6c0-0.69-0.45-1.07-0.9-1.07c-0.45,0-0.62,0.21-1.17,1
	c-0.9,1.17-2.28,2.28-4.11,2.28c-1.66,0-4.17-0.93-4.76-5.69L266.88,116.06L266.88,116.06z M257.15,115.34
	c0.17-2.38,1.24-4.55,3.62-4.55c1.52,0,2.86,1.28,3,3.48L257.15,115.34L257.15,115.34z"/>
<path d="M275.25,112.44c0-0.86,0.04-2.07,1.83-2.07c1.04,0,1.41,0.55,1.72,0.97c0.52,0.79,0.83,1.31,1.76,1.31
	c1.1,0,1.83-0.83,1.83-1.86c0-2.04-2-2.59-4.14-2.59c-2.66,0-5.14,0.55-6.31,1.21c-0.86,0.45-1,0.9-1,1.97v14.42
	c0,0.59,0.17,0.72,0.76,0.72h2.83c0.59,0,0.69-0.17,0.72-0.72V112.44L275.25,112.44z"/>
<path d="M289.57,115.44c-1.21-0.52-2.72-1.17-2.72-2.9c0-0.9,0.66-2.07,2.07-2.07c1.41,0,2,1.04,2.35,1.69
	c0.38,0.65,0.83,1.41,1.9,1.41c0.97,0,1.66-0.72,1.66-1.69c0-1.38-1.55-3.69-5.73-3.69c-4.38,0-6,2.62-6,5.07
	c0,3.21,2.76,4.55,3.8,5.04c0.86,0.41,2.97,1.41,3.45,1.76c0.34,0.31,1.1,0.96,1.1,2.14c0,1.28-0.93,2.14-2.17,2.14
	c-1.38,0-2-0.9-2.83-2.07c-0.48-0.66-0.97-1.35-1.93-1.35c-1,0-1.76,0.83-1.76,1.86c0,1.38,1.66,4.17,6.42,4.17
	c5.14,0,6.21-3.48,6.21-5.42c0-3.31-2.48-4.55-4.07-5.31L289.57,115.44L289.57,115.44z"/>
<path d="M297.88,125.79c0,0.69,0.21,0.72,0.79,0.72h2.72c0.55,0,0.76-0.1,0.76-0.72v-25.01c0-0.62-0.17-0.65-0.76-0.65h-2.72
	c-0.62,0-0.79,0.1-0.79,0.65V125.79L297.88,125.79z"/>
<path class="st15" d="M321.01,117.37c-0.1-4.18-2.55-9.18-8.18-9.18c-5.04,0-8.28,4-8.28,9.38c0,5.31,3.14,9.38,8.21,9.38
	C318.14,126.96,321.11,122.44,321.01,117.37L321.01,117.37z M316.52,117.17c0.17,3.97-1.38,6.93-3.59,6.93
	c-2.28,0-3.93-3.17-3.93-7.04c0-3.48,1.28-6.31,3.62-6.31C314.66,110.75,316.35,113.06,316.52,117.17L316.52,117.17z"/>
<path d="M333.42,125.76c0,0.69,0.1,0.76,0.83,0.76h2.8c0.62,0,0.72-0.17,0.72-0.83v-11.7c0-0.97-0.03-2.42-0.96-3.79
	c-1.24-1.86-3.11-2-4.11-2c-2.73,0-4.24,1.35-4.93,1.97v-9.38c0-0.59-0.17-0.65-0.72-0.65h-2.86c-0.59,0-0.72,0.24-0.72,0.69v24.91
	c0,0.69,0.17,0.79,0.72,0.79h2.86c0.62,0,0.72-0.28,0.72-0.83v-13.14c0.38-0.35,1.48-1.35,2.97-1.35c0.97,0,1.79,0.48,2.24,1.21
	c0.45,0.72,0.45,1.52,0.45,2.45V125.76L333.42,125.76z"/>
</svg>
